<?xml version="1.0" encoding="UTF-8"?>
<svg width="665px" height="533px" viewBox="0 0 665 533" version="1.1" xmlns="http://www.w3.org/2000/svg" xmlns:xlink="http://www.w3.org/1999/xlink">
    <!-- Generator: Sketch 52.2 (67145) - http://www.bohemiancoding.com/sketch -->
    <title>Shirt Front Copy</title>
    <desc>Created with Sketch.</desc>
    <g id="Shirt-Front-Copy" stroke="none" stroke-width="1" fill="none" fill-rule="evenodd">
        <g id="Group-3">
            <g id="Group" transform="translate(140.000000, 0.000000)">
                <path d="M94.5,0 L189,187 L0,187 L94.5,0 Z M94.5,81.0333333 L60.9,147.522222 L128.1,147.522222 L94.5,81.0333333 Z" id="Combined-Shape" fill="#33CCFF"></path>
                <path d="M321,187 L258,187 L258,54.0222222 L195,54.0222222 L195,0 L384,0 L384,54.0222222 L321,54.0222222 L321,187 Z" id="Combined-Shape" fill="#FF6699"></path>
                <polygon id="Rectangle-20" fill="#FFFFFF" points="193.55102 0 244 0 191.44898 187 141 187"></polygon>
            </g>
            <g id="Group-2" transform="translate(0.000000, 278.000000)">
                <path d="M40.176,58 L37.2463125,46.7890625 L20.0588125,46.7890625 L17.129125,58 L0.254125,58 L18.6525625,1.6328125 L39.4338125,1.6328125 L57.83225,58 L40.176,58 Z M28.4963125,14.640625 L23.066625,35.109375 L34.2385,35.109375 L28.8088125,14.640625 L28.4963125,14.640625 Z M57.076125,40.9296875 L72.3105,40.9296875 C72.9355,44.328125 76.8808125,46.28125 81.5683125,46.28125 C86.52925,46.28125 89.576125,44.25 89.576125,41.4765625 C89.576125,38.8203125 87.388625,37.6875 81.0605,36.5546875 L75.3964375,35.5390625 C64.1855,33.546875 58.0526875,27.8828125 58.0526875,19.1328125 C58.0526875,7.8046875 67.8183125,0.65625 81.21675,0.65625 C96.294875,0.65625 104.732375,7.6484375 104.8105,18.78125 L89.576125,18.78125 C89.4589375,15.34375 85.9433125,13.3515625 81.4120625,13.3515625 C76.8026875,13.3515625 74.4589375,15.3828125 74.4589375,17.921875 C74.4589375,20.4609375 76.8808125,21.671875 82.5058125,22.6875 L88.169875,23.703125 C100.27925,25.890625 105.982375,30.8515625 105.982375,39.9921875 C105.982375,51.59375 96.919875,58.9765625 81.373,58.9765625 C66.763625,58.9765625 57.1151875,52.453125 57.076125,40.9296875 Z M108.66375,40.9296875 L123.898125,40.9296875 C124.523125,44.328125 128.468437,46.28125 133.155937,46.28125 C138.116875,46.28125 141.16375,44.25 141.16375,41.4765625 C141.16375,38.8203125 138.97625,37.6875 132.648125,36.5546875 L126.984062,35.5390625 C115.773125,33.546875 109.640312,27.8828125 109.640312,19.1328125 C109.640312,7.8046875 119.405937,0.65625 132.804375,0.65625 C147.8825,0.65625 156.32,7.6484375 156.398125,18.78125 L141.16375,18.78125 C141.046562,15.34375 137.530937,13.3515625 132.999687,13.3515625 C128.390312,13.3515625 126.046562,15.3828125 126.046562,17.921875 C126.046562,20.4609375 128.468437,21.671875 134.093437,22.6875 L139.7575,23.703125 C151.866875,25.890625 157.57,30.8515625 157.57,39.9921875 C157.57,51.59375 148.5075,58.9765625 132.960625,58.9765625 C118.35125,58.9765625 108.702812,52.453125 108.66375,40.9296875 Z M178.376375,58 L161.813875,58 L161.813875,1.6328125 L178.376375,1.6328125 L178.376375,58 Z M182.698375,40.9296875 L197.93275,40.9296875 C198.55775,44.328125 202.503062,46.28125 207.190562,46.28125 C212.1515,46.28125 215.198375,44.25 215.198375,41.4765625 C215.198375,38.8203125 213.010875,37.6875 206.68275,36.5546875 L201.018687,35.5390625 C189.80775,33.546875 183.674937,27.8828125 183.674937,19.1328125 C183.674937,7.8046875 193.440562,0.65625 206.839,0.65625 C221.917125,0.65625 230.354625,7.6484375 230.43275,18.78125 L215.198375,18.78125 C215.081187,15.34375 211.565562,13.3515625 207.034312,13.3515625 C202.424937,13.3515625 200.081187,15.3828125 200.081187,17.921875 C200.081187,20.4609375 202.503062,21.671875 208.128062,22.6875 L213.792125,23.703125 C225.9015,25.890625 231.604625,30.8515625 231.604625,39.9921875 C231.604625,51.59375 222.542125,58.9765625 206.99525,58.9765625 C192.385875,58.9765625 182.737437,52.453125 182.698375,40.9296875 Z M265.106312,58 L248.543812,58 L248.543812,14.796875 L233.700062,14.796875 L233.700062,1.6328125 L279.950062,1.6328125 L279.950062,14.796875 L265.106312,14.796875 L265.106312,58 Z M300.248625,58 L283.686125,58 L283.686125,1.6328125 L300.248625,1.6328125 L300.248625,58 Z M341.9925,58 L320.508125,58 L303.39875,1.6328125 L322.46125,1.6328125 L331.484687,42.296875 L331.797187,42.296875 L340.820625,1.6328125 L359.101875,1.6328125 L341.9925,58 Z M402.017625,44.8359375 L402.017625,58 L362.252,58 L362.252,1.6328125 L402.017625,1.6328125 L402.017625,14.796875 L378.8145,14.796875 L378.8145,23.8984375 L400.572312,23.8984375 L400.572312,35.7734375 L378.8145,35.7734375 L378.8145,44.8359375 L402.017625,44.8359375 Z" id="ASSISTIVE" fill="#33CCFF"></path>
                <path d="M490.448666,58 L473.886166,58 L473.886166,14.796875 L459.042416,14.796875 L459.042416,1.6328125 L505.292416,1.6328125 L505.292416,14.796875 L490.448666,14.796875 L490.448666,58 Z M548.792692,44.8359375 L548.792692,58 L509.027067,58 L509.027067,1.6328125 L548.792692,1.6328125 L548.792692,14.796875 L525.589567,14.796875 L525.589567,23.8984375 L547.34738,23.8984375 L547.34738,35.7734375 L525.589567,35.7734375 L525.589567,44.8359375 L548.792692,44.8359375 Z M581.199219,58.9765625 C563.933594,58.9765625 553.230469,48.390625 553.230469,29.796875 C553.230469,11.203125 563.972656,0.65625 581.199219,0.65625 C596.082031,0.65625 607.332031,10.34375 607.371094,24.328125 L591.511719,24.328125 C591.121094,17.921875 586.941406,13.6640625 581.199219,13.6640625 C574.402344,13.6640625 570.105469,19.6796875 570.105469,29.7578125 C570.105469,39.953125 574.363281,45.96875 581.238281,45.96875 C586.941406,45.96875 591.082031,41.7890625 591.589844,35.265625 L607.449219,35.265625 C607.371094,49.328125 596.394531,58.9765625 581.199219,58.9765625 Z M664.738558,58 L648.176058,58 L648.176058,36.203125 L628.332308,36.203125 L628.332308,58 L611.769808,58 L611.769808,1.6328125 L628.332308,1.6328125 L628.332308,23.0390625 L648.176058,23.0390625 L648.176058,1.6328125 L664.738558,1.6328125 L664.738558,58 Z" id="TECH" fill="#FF6699"></path>
                <polygon id="Rectangle-20" fill="#FFFFFF" points="430.826531 1 446.5 1 430.173469 58 414.5 58"></polygon>
            </g>
            <path d="M162,530 L111.345133,530 L111.345133,463.488565 L50.6548673,463.488565 L50.6548673,530 L0,530 L0,358 L50.6548673,358 L50.6548673,423.319473 L111.345133,423.319473 L111.345133,358 L162,358 L162,530 Z M288.029851,530 L279.074627,495.790714 L226.537313,495.790714 L217.58209,530 L166,530 L222.238806,358 L285.761194,358 L342,530 L288.029851,530 Z M252.524476,397 L236,460 L270,460 L253.475524,397 L252.524476,397 Z M416.631124,533 C363.769452,533 331,500.690556 331,443.940388 C331,387.190221 363.889049,355 416.631124,355 C462.197406,355 496.64121,384.567314 496.760807,427.249163 L448.204611,427.249163 C447.008646,407.696584 434.211816,394.701273 416.631124,394.701273 C395.821326,394.701273 382.665706,413.061621 382.665706,443.821165 C382.665706,474.938379 395.701729,493.298727 416.75072,493.298727 C434.211816,493.298727 446.889049,480.541862 448.443804,460.631614 L497,460.631614 C496.760807,503.551909 463.154179,533 416.631124,533 Z M554.753903,530 L504,530 L504,358 L554.753903,358 L554.753903,430.948025 L555.711524,430.948025 L609.098885,358 L662.366543,358 L605.507807,434.404712 L665,530 L605.986617,530 L568.280297,466.826057 L554.753903,484.943867 L554.753903,530 Z" id="HACK" fill="#FFFFFF"></path>
        </g>
    </g>
</svg>