<?xml version="1.0" encoding="UTF-8"?>
<svg width="373px" height="231px" viewBox="0 0 373 231" version="1.1" xmlns="http://www.w3.org/2000/svg" xmlns:xlink="http://www.w3.org/1999/xlink">
    <!-- Generator: Sketch 52.2 (67145) - http://www.bohemiancoding.com/sketch -->
    <title>ATHack</title>
    <desc>Created with Sketch.</desc>
    <g id="ATHack" stroke="none" stroke-width="1" fill="none" fill-rule="evenodd">
        <path d="M60,15 L105,105 L15,105 L60,15 Z M60,54 L44,86 L76,86 L60,54 Z" id="Combined-Shape" fill="#33CCFF"></path>
        <path d="M160,120 L205,210 L115,210 L160,120 Z M160,159 L144,191 L176,191 L160,159 Z" id="Combined-Shape-Copy" fill="#33CCFF"></path>
        <path d="M175,105 L145,105 L145,41 L115,41 L115,15 L205,15 L205,41 L175,41 L175,105 Z" id="Combined-Shape" fill="#FF6699"></path>
        <rect id="Combined-Shape" fill="#FF6699" x="15" y="120" width="90" height="90"></rect>
        <path d="M261.98,156.82 C260.673327,155.139992 258.900011,153.786672 256.66,152.76 C254.419989,151.733328 252.133345,151.22 249.8,151.22 C247.373321,151.22 245.18001,151.709995 243.22,152.69 C241.25999,153.670005 239.580007,154.976658 238.18,156.61 C236.779993,158.243341 235.683337,160.133323 234.89,162.28 C234.096663,164.426677 233.7,166.713321 233.7,169.14 C233.7,171.566679 234.07333,173.853323 234.82,176 C235.56667,178.146677 236.663326,180.036658 238.11,181.67 C239.556674,183.303341 241.283323,184.586662 243.29,185.52 C245.296677,186.453338 247.559987,186.92 250.08,186.92 C252.413345,186.92 254.723322,186.476671 257.01,185.59 C259.296678,184.703329 261.139993,183.420008 262.54,181.74 L275.28,197.28 C272.386652,200.080014 268.653356,202.273325 264.08,203.86 C259.506644,205.446675 254.653359,206.24 249.52,206.24 C244.013306,206.24 238.880024,205.400008 234.12,203.72 C229.359976,202.039992 225.230017,199.590016 221.73,196.37 C218.229982,193.149984 215.476677,189.253356 213.47,184.68 C211.463323,180.106644 210.46,174.926696 210.46,169.14 C210.46,163.446638 211.463323,158.313356 213.47,153.74 C215.476677,149.166644 218.229982,145.270016 221.73,142.05 C225.230017,138.829984 229.359976,136.356675 234.12,134.63 C238.880024,132.903325 243.96664,132.04 249.38,132.04 C251.900013,132.04 254.396654,132.273331 256.87,132.74 C259.343346,133.206669 261.723322,133.836663 264.01,134.63 C266.296678,135.423337 268.396657,136.403327 270.31,137.57 C272.223343,138.736672 273.879993,140.019993 275.28,141.42 L261.98,156.82 Z" id="Path" fill="#FF6699"></path>
        <path d="M239.589105,183.134197 L225.448782,199.339398 C224.138878,198.435541 222.899285,197.445742 221.73,196.37 C218.229982,193.149984 215.476677,189.253356 213.47,184.68 C211.463323,180.106644 210.46,174.926696 210.46,169.14 C210.46,163.446638 211.463323,158.313356 213.47,153.74 C215.476677,149.166644 218.229982,145.270016 221.73,142.05 C225.230017,138.829984 229.359976,136.356675 234.12,134.63 C238.880024,132.903325 243.96664,132.04 249.38,132.04 C251.900013,132.04 254.396654,132.273331 256.87,132.74 C259.343346,133.206669 261.723322,133.836663 264.01,134.63 C266.296678,135.423337 268.396657,136.403328 270.31,137.57 C272.223343,138.736673 273.879993,140.019993 275.28,141.42 L261.98,156.82 C260.673327,155.139992 258.900011,153.786672 256.66,152.76 C254.419989,151.733328 252.133345,151.22 249.8,151.22 C247.373321,151.22 245.18001,151.709995 243.22,152.69 C241.25999,153.670005 239.580007,154.976659 238.18,156.61 C236.779993,158.243342 235.683337,160.133323 234.89,162.28 C234.096663,164.426677 233.7,166.713321 233.7,169.14 C233.7,171.566679 234.07333,173.853323 234.82,176 C235.56667,178.146677 236.663326,180.036659 238.11,181.67 C238.574207,182.194105 239.067241,182.68217 239.589104,183.134198 Z" id="Combined-Shape" fill="#33CCFF"></path>
        <polygon id="Path" fill="#33CCFF" points="359.28 204 330.86 204 308.04 170.54 307.62 170.54 307.62 204 284.52 204 284.52 98.16 307.62 98.16 307.62 162.56 308.04 162.56 330.3 134.28 358.16 134.28 331.28 165.78"></polygon>
        <polygon id="Path" fill="#FF6699" points="307.62 204 284.52 204 284.52 98.16 307.62 98.16"></polygon>
        <polygon id="Rectangle-20" fill="#000000" points="106 15 130 15 105 105 81 105"></polygon>
        <polygon id="H" fill="#FFFFFF" points="89 195 70.8643068 195 70.8643068 171.798337 49.1356932 171.798337 49.1356932 195 31 195 31 135 49.1356932 135 49.1356932 157.785863 70.8643068 157.785863 70.8643068 135 89 135"></polygon>
    </g>
</svg>