<?xml version="1.0" encoding="UTF-8"?>
<svg width="1108px" height="147px" viewBox="0 0 1108 147" version="1.1" xmlns="http://www.w3.org/2000/svg" xmlns:xlink="http://www.w3.org/1999/xlink">
    <!-- Generator: Sketch 52.2 (67145) - http://www.bohemiancoding.com/sketch -->
    <title>LogoAlt</title>
    <desc>Created with Sketch.</desc>
    <g id="LogoAlt" stroke="none" stroke-width="1" fill="none" fill-rule="evenodd">
        <path d="M62,17 L107,107 L17,107 L62,17 Z M62,56 L46,88 L78,88 L62,56 Z" id="Combined-Shape" fill="#FFFFFF"></path>
        <path d="M144.7,67.9 C143.36666,66.633327 141.800009,65.566671 140,64.7 C138.199991,63.833329 136.30001,63.4 134.3,63.4 C132.766659,63.4 131.350007,63.699997 130.05,64.3 C128.749994,64.900003 128.1,65.933326 128.1,67.4 C128.1,68.800007 128.81666,69.799997 130.25,70.4 C131.68334,71.000003 133.999984,71.666663 137.2,72.4 C139.066676,72.800002 140.949991,73.366663 142.85,74.1 C144.75001,74.833337 146.466659,75.799994 148,77 C149.533341,78.200006 150.766662,79.666658 151.7,81.4 C152.633338,83.133342 153.1,85.199988 153.1,87.6 C153.1,90.733349 152.466673,93.3833225 151.2,95.55 C149.933327,97.7166775 148.283344,99.46666 146.25,100.8 C144.216656,102.13334 141.933346,103.099997 139.4,103.7 C136.866654,104.300003 134.333346,104.6 131.8,104.6 C127.733313,104.6 123.75002,103.950007 119.85,102.65 C115.94998,101.349993 112.700013,99.433346 110.1,96.9 L119.3,87.2 C120.766674,88.800008 122.566656,90.133328 124.7,91.2 C126.833344,92.266672 129.099988,92.8 131.5,92.8 C132.83334,92.8 134.149993,92.4833365 135.45,91.85 C136.750007,91.2166635 137.4,90.100008 137.4,88.5 C137.4,86.966659 136.600008,85.833337 135,85.1 C133.399992,84.366663 130.900017,83.600004 127.5,82.8 C125.766658,82.399998 124.033342,81.86667 122.3,81.2 C120.566658,80.53333 119.016673,79.633339 117.65,78.5 C116.283327,77.366661 115.166671,75.966675 114.3,74.3 C113.433329,72.633325 113,70.633345 113,68.3 C113,65.299985 113.633327,62.7500105 114.9,60.65 C116.166673,58.5499895 117.79999,56.83334 119.8,55.5 C121.80001,54.16666 124.016655,53.1833365 126.45,52.55 C128.883345,51.9166635 131.299988,51.6 133.7,51.6 C137.433352,51.6 141.083315,52.1833275 144.65,53.35 C148.216684,54.5166725 151.233321,56.266655 153.7,58.6 L144.7,67.9 Z M191.9,67.9 C190.56666,66.633327 189.000009,65.566671 187.2,64.7 C185.399991,63.833329 183.50001,63.4 181.5,63.4 C179.966659,63.4 178.550006,63.699997 177.25,64.3 C175.949994,64.900003 175.3,65.933326 175.3,67.4 C175.3,68.800007 176.01666,69.799997 177.45,70.4 C178.883341,71.000003 181.199984,71.666663 184.4,72.4 C186.266676,72.800002 188.149991,73.366663 190.05,74.1 C191.95001,74.833337 193.666659,75.799994 195.2,77 C196.733341,78.200006 197.966662,79.666658 198.9,81.4 C199.833338,83.133342 200.3,85.199988 200.3,87.6 C200.3,90.733349 199.666673,93.3833225 198.4,95.55 C197.133327,97.7166775 195.483343,99.46666 193.45,100.8 C191.416656,102.13334 189.133346,103.099997 186.6,103.7 C184.066654,104.300003 181.533346,104.6 179,104.6 C174.933313,104.6 170.950019,103.950007 167.05,102.65 C163.14998,101.349993 159.900013,99.433346 157.3,96.9 L166.5,87.2 C167.966674,88.800008 169.766656,90.133328 171.9,91.2 C174.033344,92.266672 176.299988,92.8 178.7,92.8 C180.03334,92.8 181.349993,92.4833365 182.65,91.85 C183.950007,91.2166635 184.6,90.100008 184.6,88.5 C184.6,86.966659 183.800008,85.833337 182.2,85.1 C180.599992,84.366663 178.100017,83.600004 174.7,82.8 C172.966658,82.399998 171.233342,81.86667 169.5,81.2 C167.766658,80.53333 166.216674,79.633339 164.85,78.5 C163.483327,77.366661 162.366671,75.966675 161.5,74.3 C160.633329,72.633325 160.2,70.633345 160.2,68.3 C160.2,65.299985 160.833327,62.7500105 162.1,60.65 C163.366673,58.5499895 164.99999,56.83334 167,55.5 C169.00001,54.16666 171.216655,53.1833365 173.65,52.55 C176.083346,51.9166635 178.499988,51.6 180.9,51.6 C184.633352,51.6 188.283316,52.1833275 191.85,53.35 C195.416685,54.5166725 198.433321,56.266655 200.9,58.6 L191.9,67.9 Z M227.6,37.3 C227.6,38.566673 227.350003,39.7499945 226.85,40.85 C226.349998,41.9500055 225.683337,42.899996 224.85,43.7 C224.016662,44.500004 223.016673,45.133331 221.85,45.6 C220.683328,46.066669 219.466673,46.3 218.2,46.3 C215.53332,46.3 213.300009,45.4166755 211.5,43.65 C209.699991,41.8833245 208.8,39.766679 208.8,37.3 C208.8,36.099994 209.033331,34.9500055 209.5,33.85 C209.966669,32.7499945 210.633329,31.800004 211.5,31 C212.366671,30.199996 213.366661,29.5500025 214.5,29.05 C215.633339,28.5499975 216.86666,28.3 218.2,28.3 C219.466673,28.3 220.683328,28.533331 221.85,29 C223.016673,29.466669 224.016662,30.099996 224.85,30.9 C225.683337,31.700004 226.349998,32.6499945 226.85,33.75 C227.350003,34.8500055 227.6,36.033327 227.6,37.3 Z M210,103 L210,53.2 L226.4,53.2 L226.4,103 L210,103 Z M268.7,67.9 C267.36666,66.633327 265.800009,65.566671 264,64.7 C262.199991,63.833329 260.30001,63.4 258.3,63.4 C256.766659,63.4 255.350007,63.699997 254.05,64.3 C252.749994,64.900003 252.1,65.933326 252.1,67.4 C252.1,68.800007 252.81666,69.799997 254.25,70.4 C255.683341,71.000003 257.999984,71.666663 261.2,72.4 C263.066676,72.800002 264.949991,73.366663 266.85,74.1 C268.75001,74.833337 270.466659,75.799994 272,77 C273.533341,78.200006 274.766662,79.666658 275.7,81.4 C276.633338,83.133342 277.1,85.199988 277.1,87.6 C277.1,90.733349 276.466673,93.3833225 275.2,95.55 C273.933327,97.7166775 272.283344,99.46666 270.25,100.8 C268.216656,102.13334 265.933346,103.099997 263.4,103.7 C260.866654,104.300003 258.333346,104.6 255.8,104.6 C251.733313,104.6 247.75002,103.950007 243.85,102.65 C239.949981,101.349993 236.700013,99.433346 234.1,96.9 L243.3,87.2 C244.766674,88.800008 246.566656,90.133328 248.7,91.2 C250.833344,92.266672 253.099988,92.8 255.5,92.8 C256.83334,92.8 258.149994,92.4833365 259.45,91.85 C260.750007,91.2166635 261.4,90.100008 261.4,88.5 C261.4,86.966659 260.600008,85.833337 259,85.1 C257.399992,84.366663 254.900017,83.600004 251.5,82.8 C249.766658,82.399998 248.033342,81.86667 246.3,81.2 C244.566658,80.53333 243.016673,79.633339 241.65,78.5 C240.283327,77.366661 239.166671,75.966675 238.3,74.3 C237.433329,72.633325 237,70.633345 237,68.3 C237,65.299985 237.633327,62.7500105 238.9,60.65 C240.166673,58.5499895 241.79999,56.83334 243.8,55.5 C245.80001,54.16666 248.016654,53.1833365 250.45,52.55 C252.883345,51.9166635 255.299988,51.6 257.7,51.6 C261.433352,51.6 265.083316,52.1833275 268.65,53.35 C272.216685,54.5166725 275.233321,56.266655 277.7,58.6 L268.7,67.9 Z M304.4,65.5 L304.4,84.5 C304.4,86.833345 304.849995,88.5833275 305.75,89.75 C306.650005,90.9166725 308.266655,91.5 310.6,91.5 C311.400004,91.5 312.249995,91.433334 313.15,91.3 C314.050005,91.166666 314.799997,90.966668 315.4,90.7 L315.6,102.7 C314.466661,103.100002 313.033342,103.449998 311.3,103.75 C309.566658,104.050002 307.833342,104.2 306.1,104.2 C302.76665,104.2 299.966678,103.783338 297.7,102.95 C295.433322,102.116663 293.616673,100.916674 292.25,99.35 C290.883327,97.7833255 289.900003,95.9166775 289.3,93.75 C288.699997,91.5833225 288.4,89.16668 288.4,86.5 L288.4,65.5 L280.4,65.5 L280.4,53.2 L288.3,53.2 L288.3,40.1 L304.4,40.1 L304.4,53.2 L316.1,53.2 L316.1,65.5 L304.4,65.5 Z M341.6,37.3 C341.6,38.566673 341.350002,39.7499945 340.85,40.85 C340.349997,41.9500055 339.683337,42.899996 338.85,43.7 C338.016662,44.500004 337.016672,45.133331 335.85,45.6 C334.683327,46.066669 333.466673,46.3 332.2,46.3 C329.53332,46.3 327.300009,45.4166755 325.5,43.65 C323.699991,41.8833245 322.8,39.766679 322.8,37.3 C322.8,36.099994 323.033331,34.9500055 323.5,33.85 C323.966669,32.7499945 324.633329,31.800004 325.5,31 C326.366671,30.199996 327.366661,29.5500025 328.5,29.05 C329.633339,28.5499975 330.86666,28.3 332.2,28.3 C333.466673,28.3 334.683327,28.533331 335.85,29 C337.016672,29.466669 338.016662,30.099996 338.85,30.9 C339.683337,31.700004 340.349997,32.6499945 340.85,33.75 C341.350002,34.8500055 341.6,36.033327 341.6,37.3 Z M324,103 L324,53.2 L340.4,53.2 L340.4,103 L324,103 Z M384.2,103 L366.5,103 L346.9,53.2 L365,53.2 L375.5,85.5 L375.8,85.5 L386.3,53.2 L403.8,53.2 L384.2,103 Z M444.4,72.4 C444.4,69.799987 443.583341,67.566676 441.95,65.7 C440.316659,63.833324 437.866683,62.9 434.6,62.9 C432.999992,62.9 431.53334,63.1499975 430.2,63.65 C428.86666,64.1500025 427.700005,64.833329 426.7,65.7 C425.699995,66.566671 424.900003,67.5833275 424.3,68.75 C423.699997,69.9166725 423.366667,71.133327 423.3,72.4 L444.4,72.4 Z M459.5,78.7 L459.5,80.7 C459.5,81.36667 459.466667,81.999997 459.4,82.6 L423.3,82.6 C423.433334,84.000007 423.849996,85.266661 424.55,86.4 C425.250004,87.533339 426.149995,88.5166625 427.25,89.35 C428.350006,90.1833375 429.583326,90.833331 430.95,91.3 C432.316673,91.766669 433.733326,92 435.2,92 C437.800013,92 439.999991,91.5166715 441.8,90.55 C443.600009,89.5833285 445.066661,88.333341 446.2,86.8 L457.6,94 C455.266655,97.400017 452.183353,100.016658 448.35,101.85 C444.516648,103.683343 440.066692,104.6 435,104.6 C431.266648,104.6 427.73335,104.016672 424.4,102.85 C421.06665,101.683328 418.150013,99.9833445 415.65,97.75 C413.149987,95.5166555 411.18334,92.766683 409.75,89.5 C408.31666,86.233317 407.6,82.500021 407.6,78.3 C407.6,74.233313 408.299993,70.5500165 409.7,67.25 C411.100007,63.9499835 412.999988,61.1500115 415.4,58.85 C417.800012,56.5499885 420.633317,54.766673 423.9,53.5 C427.166683,52.233327 430.699981,51.6 434.5,51.6 C438.166685,51.6 441.533318,52.2166605 444.6,53.45 C447.666682,54.6833395 450.299989,56.466655 452.5,58.8 C454.700011,61.133345 456.416661,63.96665 457.65,67.3 C458.88334,70.63335 459.5,74.433312 459.5,78.7 Z" id="ssistive" fill="#FFFFFF"></path>
        <path d="M557,107 L527,107 L527,43 L497,43 L497,17 L587,17 L587,43 L557,43 L557,107 Z" id="Combined-Shape" fill="#FF6699"></path>
        <path d="M621.7,72.4 C621.7,69.799987 620.883342,67.566676 619.25,65.7 C617.616658,63.833324 615.166683,62.9 611.9,62.9 C610.299992,62.9 608.83334,63.1499975 607.5,63.65 C606.16666,64.1500025 605.000005,64.833329 604,65.7 C602.999995,66.566671 602.200003,67.5833275 601.6,68.75 C600.999997,69.9166725 600.666667,71.133327 600.6,72.4 L621.7,72.4 Z M636.8,78.7 L636.8,80.7 C636.8,81.36667 636.766667,81.999997 636.7,82.6 L600.6,82.6 C600.733334,84.000007 601.149997,85.266661 601.85,86.4 C602.550004,87.533339 603.449995,88.5166625 604.55,89.35 C605.650006,90.1833375 606.883326,90.833331 608.25,91.3 C609.616674,91.766669 611.033326,92 612.5,92 C615.100013,92 617.299991,91.5166715 619.1,90.55 C620.900009,89.5833285 622.366661,88.333341 623.5,86.8 L634.9,94 C632.566655,97.400017 629.483353,100.016658 625.65,101.85 C621.816648,103.683343 617.366692,104.6 612.3,104.6 C608.566648,104.6 605.03335,104.016672 601.7,102.85 C598.36665,101.683328 595.450012,99.9833445 592.95,97.75 C590.449988,95.5166555 588.483341,92.766683 587.05,89.5 C585.616659,86.233317 584.9,82.500021 584.9,78.3 C584.9,74.233313 585.599993,70.5500165 587,67.25 C588.400007,63.9499835 590.299988,61.1500115 592.7,58.85 C595.100012,56.5499885 597.933317,54.766673 601.2,53.5 C604.466683,52.233327 607.999981,51.6 611.8,51.6 C615.466685,51.6 618.833318,52.2166605 621.9,53.45 C624.966682,54.6833395 627.599989,56.466655 629.8,58.8 C632.000011,61.133345 633.71666,63.96665 634.95,67.3 C636.183339,70.63335 636.8,74.433312 636.8,78.7 Z M681.3,69.3 C680.366662,68.099994 679.100008,67.133337 677.5,66.4 C675.899992,65.666663 674.266675,65.3 672.6,65.3 C670.866658,65.3 669.300007,65.6499965 667.9,66.35 C666.499993,67.0500035 665.300005,67.9833275 664.3,69.15 C663.299995,70.3166725 662.51667,71.666659 661.95,73.2 C661.383331,74.733341 661.1,76.366658 661.1,78.1 C661.1,79.833342 661.366664,81.466659 661.9,83 C662.433336,84.533341 663.216661,85.8833275 664.25,87.05 C665.283339,88.2166725 666.51666,89.13333 667.95,89.8 C669.383341,90.46667 670.999991,90.8 672.8,90.8 C674.466675,90.8 676.116658,90.4833365 677.75,89.85 C679.383342,89.2166635 680.699995,88.300006 681.7,87.1 L690.8,98.2 C688.733323,100.20001 686.066683,101.766661 682.8,102.9 C679.533317,104.033339 676.066685,104.6 672.4,104.6 C668.466647,104.6 664.800017,104.000006 661.4,102.8 C657.999983,101.599994 655.050012,99.8500115 652.55,97.55 C650.049988,95.2499885 648.08334,92.466683 646.65,89.2 C645.216659,85.933317 644.5,82.233354 644.5,78.1 C644.5,74.033313 645.216659,70.366683 646.65,67.1 C648.08334,63.833317 650.049988,61.0500115 652.55,58.75 C655.050012,56.4499885 657.999983,54.6833395 661.4,53.45 C664.800017,52.2166605 668.433314,51.6 672.3,51.6 C674.100009,51.6 675.883324,51.766665 677.65,52.1 C679.416675,52.433335 681.116658,52.8833305 682.75,53.45 C684.383342,54.0166695 685.883327,54.7166625 687.25,55.55 C688.616674,56.3833375 689.799995,57.299995 690.8,58.3 L681.3,69.3 Z M730.1,103 L730.1,76 C730.1,74.599993 730.000001,73.266673 729.8,72 C729.599999,70.733327 729.216669,69.6166715 728.65,68.65 C728.08333,67.6833285 727.333338,66.9166695 726.4,66.35 C725.466662,65.7833305 724.266674,65.5 722.8,65.5 C719.933319,65.5 717.733341,66.5166565 716.2,68.55 C714.666659,70.5833435 713.9,73.099985 713.9,76.1 L713.9,103 L697.5,103 L697.5,27.4 L713.9,27.4 L713.9,59.5 L714.1,59.5 C715.233339,57.49999 717.033321,55.7166745 719.5,54.15 C721.966679,52.5833255 724.933316,51.8 728.4,51.8 C731.800017,51.8 734.649989,52.399994 736.95,53.6 C739.250012,54.800006 741.116659,56.3499905 742.55,58.25 C743.98334,60.1500095 745.016664,62.333321 745.65,64.8 C746.283337,67.266679 746.6,69.733321 746.6,72.2 L746.6,103 L730.1,103 Z M791.7,103 L791.7,75.8 C791.7,74.399993 791.583335,73.066673 791.35,71.8 C791.116666,70.533327 790.733336,69.4166715 790.2,68.45 C789.666664,67.4833285 788.916672,66.7166695 787.95,66.15 C786.983328,65.5833305 785.766674,65.3 784.3,65.3 C782.833326,65.3 781.550005,65.5833305 780.45,66.15 C779.349994,66.7166695 778.433337,67.499995 777.7,68.5 C776.966663,69.500005 776.416669,70.6499935 776.05,71.95 C775.683332,73.2500065 775.5,74.599993 775.5,76 L775.5,103 L759,103 L759,53.2 L774.9,53.2 L774.9,60.1 L775.1,60.1 C775.700003,59.033328 776.483328,57.9833385 777.45,56.95 C778.416672,55.9166615 779.549994,55.033337 780.85,54.3 C782.150007,53.566663 783.566659,52.966669 785.1,52.5 C786.633341,52.033331 788.266658,51.8 790,51.8 C793.33335,51.8 796.166655,52.399994 798.5,53.6 C800.833345,54.800006 802.71666,56.3499905 804.15,58.25 C805.583341,60.1500095 806.616663,62.333321 807.25,64.8 C807.883337,67.266679 808.2,69.733321 808.2,72.2 L808.2,103 L791.7,103 Z M873.4,77.9 C873.4,81.966687 872.666674,85.6499835 871.2,88.95 C869.733326,92.2500165 867.733346,95.0499885 865.2,97.35 C862.666654,99.6500115 859.73335,101.433327 856.4,102.7 C853.06665,103.966673 849.500019,104.6 845.7,104.6 C841.966648,104.6 838.416684,103.966673 835.05,102.7 C831.683317,101.433327 828.750013,99.6500115 826.25,97.35 C823.749988,95.0499885 821.766674,92.2500165 820.3,88.95 C818.833326,85.6499835 818.1,81.966687 818.1,77.9 C818.1,73.833313 818.833326,70.166683 820.3,66.9 C821.766674,63.633317 823.749988,60.866678 826.25,58.6 C828.750013,56.333322 831.683317,54.600006 835.05,53.4 C838.416684,52.199994 841.966648,51.6 845.7,51.6 C849.500019,51.6 853.06665,52.199994 856.4,53.4 C859.73335,54.600006 862.666654,56.333322 865.2,58.6 C867.733346,60.866678 869.733326,63.633317 871.2,66.9 C872.666674,70.166683 873.4,73.833313 873.4,77.9 Z M857.6,77.9 C857.6,76.299992 857.333336,74.733341 856.8,73.2 C856.266664,71.666659 855.500005,70.3166725 854.5,69.15 C853.499995,67.9833275 852.266674,67.033337 850.8,66.3 C849.333326,65.566663 847.633343,65.2 845.7,65.2 C843.766657,65.2 842.066674,65.566663 840.6,66.3 C839.133326,67.033337 837.916672,67.9833275 836.95,69.15 C835.983328,70.3166725 835.250003,71.666659 834.75,73.2 C834.249998,74.733341 834,76.299992 834,77.9 C834,79.500008 834.249998,81.066659 834.75,82.6 C835.250003,84.133341 835.999995,85.5166605 837,86.75 C838.000005,87.9833395 839.233326,88.966663 840.7,89.7 C842.166674,90.433337 843.866657,90.8 845.8,90.8 C847.733343,90.8 849.433326,90.433337 850.9,89.7 C852.366674,88.966663 853.599995,87.9833395 854.6,86.75 C855.600005,85.5166605 856.349997,84.133341 856.85,82.6 C857.350003,81.066659 857.6,79.500008 857.6,77.9 Z M884,103 L884,27.4 L900.6,27.4 L900.6,103 L884,103 Z M966.4,77.9 C966.4,81.966687 965.666674,85.6499835 964.2,88.95 C962.733326,92.2500165 960.733346,95.0499885 958.2,97.35 C955.666654,99.6500115 952.73335,101.433327 949.4,102.7 C946.06665,103.966673 942.500019,104.6 938.7,104.6 C934.966648,104.6 931.416684,103.966673 928.05,102.7 C924.683317,101.433327 921.750013,99.6500115 919.25,97.35 C916.749988,95.0499885 914.766674,92.2500165 913.3,88.95 C911.833326,85.6499835 911.1,81.966687 911.1,77.9 C911.1,73.833313 911.833326,70.166683 913.3,66.9 C914.766674,63.633317 916.749988,60.866678 919.25,58.6 C921.750013,56.333322 924.683317,54.600006 928.05,53.4 C931.416684,52.199994 934.966648,51.6 938.7,51.6 C942.500019,51.6 946.06665,52.199994 949.4,53.4 C952.73335,54.600006 955.666654,56.333322 958.2,58.6 C960.733346,60.866678 962.733326,63.633317 964.2,66.9 C965.666674,70.166683 966.4,73.833313 966.4,77.9 Z M950.6,77.9 C950.6,76.299992 950.333336,74.733341 949.8,73.2 C949.266664,71.666659 948.500005,70.3166725 947.5,69.15 C946.499995,67.9833275 945.266674,67.033337 943.8,66.3 C942.333326,65.566663 940.633343,65.2 938.7,65.2 C936.766657,65.2 935.066674,65.566663 933.6,66.3 C932.133326,67.033337 930.916672,67.9833275 929.95,69.15 C928.983328,70.3166725 928.250003,71.666659 927.75,73.2 C927.249998,74.733341 927,76.299992 927,77.9 C927,79.500008 927.249998,81.066659 927.75,82.6 C928.250003,84.133341 928.999995,85.5166605 930,86.75 C931.000005,87.9833395 932.233326,88.966663 933.7,89.7 C935.166674,90.433337 936.866657,90.8 938.8,90.8 C940.733343,90.8 942.433326,90.433337 943.9,89.7 C945.366674,88.966663 946.599995,87.9833395 947.6,86.75 C948.600005,85.5166605 949.349997,84.133341 949.85,82.6 C950.350003,81.066659 950.6,79.500008 950.6,77.9 Z M1029.6,98.3 C1029.6,103.166691 1028.90001,107.399982 1027.5,111 C1026.09999,114.600018 1024.13335,117.583321 1021.6,119.95 C1019.06665,122.316678 1015.98335,124.083327 1012.35,125.25 C1008.71665,126.416673 1004.70002,127 1000.3,127 C995.899978,127 991.383357,126.33334 986.75,125 C982.116644,123.66666 978.100017,121.733346 974.7,119.2 L982.9,107.5 C985.300012,109.633344 987.949986,111.216662 990.85,112.25 C993.750015,113.283338 996.599986,113.8 999.4,113.8 C1004.20002,113.8 1007.74999,112.533346 1010.05,110 C1012.35001,107.466654 1013.5,104.100021 1013.5,99.9 L1013.5,96.9 L1013.2,96.9 C1011.66666,98.90001 1009.60001,100.499994 1007,101.7 C1004.39999,102.900006 1001.43335,103.5 998.1,103.5 C994.299981,103.5 990.933348,102.816674 988,101.45 C985.066652,100.083327 982.583343,98.233345 980.55,95.9 C978.516657,93.566655 976.966672,90.8500155 975.9,87.75 C974.833328,84.6499845 974.3,81.366684 974.3,77.9 C974.3,74.433316 974.833328,71.133349 975.9,68 C976.966672,64.866651 978.516657,62.100012 980.55,59.7 C982.583343,57.299988 985.066652,55.3833405 988,53.95 C990.933348,52.5166595 994.266648,51.8 998,51.8 C1001.13335,51.8 1004.13332,52.433327 1007,53.7 C1009.86668,54.966673 1012.16666,56.93332 1013.9,59.6 L1014.1,59.6 L1014.1,53.2 L1029.6,53.2 L1029.6,98.3 Z M1014,77.8 C1014,76.133325 1013.71667,74.533341 1013.15,73 C1012.58333,71.466659 1011.76667,70.1166725 1010.7,68.95 C1009.63333,67.7833275 1008.36667,66.86667 1006.9,66.2 C1005.43333,65.53333 1003.76668,65.2 1001.9,65.2 C1000.03332,65.2 998.383341,65.53333 996.95,66.2 C995.51666,66.86667 994.300005,67.766661 993.3,68.9 C992.299995,70.033339 991.533336,71.366659 991,72.9 C990.466664,74.433341 990.2,76.066658 990.2,77.8 C990.2,79.466675 990.466664,81.066659 991,82.6 C991.533336,84.133341 992.299995,85.4833275 993.3,86.65 C994.300005,87.8166725 995.51666,88.7499965 996.95,89.45 C998.383341,90.1500035 1000.03332,90.5 1001.9,90.5 C1003.76668,90.5 1005.44999,90.1500035 1006.95,89.45 C1008.45001,88.7499965 1009.71666,87.833339 1010.75,86.7 C1011.78334,85.566661 1012.58333,84.233341 1013.15,82.7 C1013.71667,81.166659 1014,79.533342 1014,77.8 Z M1070.7,110.5 C1069.69999,113.100013 1068.58334,115.416657 1067.35,117.45 C1066.11666,119.483344 1064.65001,121.21666 1062.95,122.65 C1061.24999,124.083341 1059.25001,125.166663 1056.95,125.9 C1054.64999,126.633337 1051.93335,127 1048.8,127 C1047.26666,127 1045.68334,126.900001 1044.05,126.7 C1042.41666,126.499999 1041.00001,126.233335 1039.8,125.9 L1041.6,112.1 C1042.4,112.366668 1043.28333,112.583332 1044.25,112.75 C1045.21667,112.916668 1046.1,113 1046.9,113 C1049.43335,113 1051.26666,112.416672 1052.4,111.25 C1053.53334,110.083328 1054.5,108.433344 1055.3,106.3 L1056.9,102.2 L1036.1,53.2 L1054.3,53.2 L1065.4,85.2 L1065.7,85.2 L1075.6,53.2 L1093,53.2 L1070.7,110.5 Z" id="echnology" fill="#FF6699"></path>
    </g>
</svg>