<?xml version="1.0" encoding="UTF-8"?>
<svg width="130px" height="130px" viewBox="0 0 130 130" version="1.1" xmlns="http://www.w3.org/2000/svg" xmlns:xlink="http://www.w3.org/1999/xlink">
    <!-- Generator: Sketch 52.2 (67145) - http://www.bohemiancoding.com/sketch -->
    <title>Group 2 Copy 5</title>
    <desc>Created with Sketch.</desc>
    <g id="Page-1" stroke="none" stroke-width="1" fill="none" fill-rule="evenodd">
        <g id="Error404-2-Copy-9" transform="translate(-571.000000, -138.000000)">
            <g id="Group-2-Copy-5" transform="translate(571.000000, 138.000000)">
                <polygon id="Rectangle" fill="#FFFFFF" points="-8.06510414e-11 2.02637906e-11 130 2.14761542e-11 130 130 -8.04778466e-11 130"></polygon>
                <g id="Group" transform="translate(25.000000, 25.000000)" fill="#33CCFF">
                    <path d="M2.52469136,5.39753086 L12.4753086,5.39753086 C13.6364703,5.39753086 14.5777778,6.33883836 14.5777778,7.5 L14.5777778,7.5 C14.5777778,8.66116164 13.6364703,9.60246914 12.4753086,9.60246914 L2.52469136,9.60246914 C1.36352972,9.60246914 0.422222222,8.66116164 0.422222222,7.5 L0.422222222,7.5 C0.422222222,6.33883836 1.36352972,5.39753086 2.52469136,5.39753086 Z" id="Rectangle"></path>
                    <path d="M2.52469136,5.39753086 L12.4753086,5.39753086 C13.6364703,5.39753086 14.5777778,6.33883836 14.5777778,7.5 L14.5777778,7.5 C14.5777778,8.66116164 13.6364703,9.60246914 12.4753086,9.60246914 L2.52469136,9.60246914 C1.36352972,9.60246914 0.422222222,8.66116164 0.422222222,7.5 L0.422222222,7.5 C0.422222222,6.33883836 1.36352972,5.39753086 2.52469136,5.39753086 Z" id="Rectangle" transform="translate(7.500000, 7.500000) rotate(90.000000) translate(-7.500000, -7.500000) "></path>
                </g>
                <g id="Group-Copy-2" transform="translate(90.000000, 90.000000)" fill="#33CCFF">
                    <path d="M2.52469136,5.39753086 L12.4753086,5.39753086 C13.6364703,5.39753086 14.5777778,6.33883836 14.5777778,7.5 L14.5777778,7.5 C14.5777778,8.66116164 13.6364703,9.60246914 12.4753086,9.60246914 L2.52469136,9.60246914 C1.36352972,9.60246914 0.422222222,8.66116164 0.422222222,7.5 L0.422222222,7.5 C0.422222222,6.33883836 1.36352972,5.39753086 2.52469136,5.39753086 Z" id="Rectangle"></path>
                    <path d="M2.52469136,5.39753086 L12.4753086,5.39753086 C13.6364703,5.39753086 14.5777778,6.33883836 14.5777778,7.5 L14.5777778,7.5 C14.5777778,8.66116164 13.6364703,9.60246914 12.4753086,9.60246914 L2.52469136,9.60246914 C1.36352972,9.60246914 0.422222222,8.66116164 0.422222222,7.5 L0.422222222,7.5 C0.422222222,6.33883836 1.36352972,5.39753086 2.52469136,5.39753086 Z" id="Rectangle" transform="translate(7.500000, 7.500000) rotate(90.000000) translate(-7.500000, -7.500000) "></path>
                </g>
                <g id="Group-Copy" transform="translate(97.500000, 32.500000) rotate(45.000000) translate(-97.500000, -32.500000) translate(90.000000, 25.000000)" fill="#FF6699">
                    <path d="M2.52469136,5.39753086 L12.4753086,5.39753086 C13.6364703,5.39753086 14.5777778,6.33883836 14.5777778,7.5 L14.5777778,7.5 C14.5777778,8.66116164 13.6364703,9.60246914 12.4753086,9.60246914 L2.52469136,9.60246914 C1.36352972,9.60246914 0.422222222,8.66116164 0.422222222,7.5 L0.422222222,7.5 C0.422222222,6.33883836 1.36352972,5.39753086 2.52469136,5.39753086 Z" id="Rectangle"></path>
                    <path d="M2.52469136,5.39753086 L12.4753086,5.39753086 C13.6364703,5.39753086 14.5777778,6.33883836 14.5777778,7.5 L14.5777778,7.5 C14.5777778,8.66116164 13.6364703,9.60246914 12.4753086,9.60246914 L2.52469136,9.60246914 C1.36352972,9.60246914 0.422222222,8.66116164 0.422222222,7.5 L0.422222222,7.5 C0.422222222,6.33883836 1.36352972,5.39753086 2.52469136,5.39753086 Z" id="Rectangle" transform="translate(7.500000, 7.500000) rotate(90.000000) translate(-7.500000, -7.500000) "></path>
                </g>
                <g id="Group-Copy-3" transform="translate(32.500000, 97.500000) rotate(45.000000) translate(-32.500000, -97.500000) translate(25.000000, 90.000000)" fill="#FF6699">
                    <path d="M2.52469136,5.39753086 L12.4753086,5.39753086 C13.6364703,5.39753086 14.5777778,6.33883836 14.5777778,7.5 L14.5777778,7.5 C14.5777778,8.66116164 13.6364703,9.60246914 12.4753086,9.60246914 L2.52469136,9.60246914 C1.36352972,9.60246914 0.422222222,8.66116164 0.422222222,7.5 L0.422222222,7.5 C0.422222222,6.33883836 1.36352972,5.39753086 2.52469136,5.39753086 Z" id="Rectangle"></path>
                    <path d="M2.52469136,5.39753086 L12.4753086,5.39753086 C13.6364703,5.39753086 14.5777778,6.33883836 14.5777778,7.5 L14.5777778,7.5 C14.5777778,8.66116164 13.6364703,9.60246914 12.4753086,9.60246914 L2.52469136,9.60246914 C1.36352972,9.60246914 0.422222222,8.66116164 0.422222222,7.5 L0.422222222,7.5 C0.422222222,6.33883836 1.36352972,5.39753086 2.52469136,5.39753086 Z" id="Rectangle" transform="translate(7.500000, 7.500000) rotate(90.000000) translate(-7.500000, -7.500000) "></path>
                </g>
            </g>
        </g>
    </g>
</svg>