<?xml version="1.0" encoding="UTF-8"?>
<svg width="1199px" height="139px" viewBox="0 0 1199 139" version="1.1" xmlns="http://www.w3.org/2000/svg" xmlns:xlink="http://www.w3.org/1999/xlink">
    <!-- Generator: Sketch 52.2 (67145) - http://www.bohemiancoding.com/sketch -->
    <title>Combined Shape</title>
    <desc>Created with Sketch.</desc>
    <g id="Page-1" stroke="none" stroke-width="1" fill="none" fill-rule="evenodd">
        <g id="Error404-2-Copy-4" transform="translate(-142.000000, -374.000000)" fill="#220064">
            <path d="M1341,398.774075 L1341,512.654455 L1235,484.251841 L1248.16781,435.1089 L1156.6931,435.86869 L1206.71772,471.465283 L1128.60228,513 L1127.23446,513 L1124.75048,413.838513 L1119.16025,412.953107 L1109.14844,476.16516 L1079.51779,471.472126 L1089.5296,408.260073 L1070.1154,405.185165 L1054.96301,513 L1053.23227,513 L946.449924,497.99272 L948.345625,502.684745 L922.814472,513 L920.157216,513 L896.555287,454.583176 L868.873221,465.767457 L891.910071,513 L801.953978,513 L794,512.921555 L794,513 L684,513 L684,419.866556 L655.264144,476.263848 L681.99434,489.883563 L670.215927,513 L670.092982,513 L592.487057,473.457806 L615.623069,490.592626 L607.022238,512.998556 L532.346318,457.692635 L560,513 L470,513 L487.111161,478.777677 L382.991869,512.608086 L355.223691,427.146421 L330.605573,513 L329.39439,513 L305.520749,506.154343 L313.789869,477.316493 L252.861072,459.845441 L270.235952,498.01369 L252.375963,513 L251.650319,513 L238.615605,484.366005 L155.456446,513 L154.353966,513 L166.320317,422.89716 L142.251841,512.721936 L142,512.654455 L142,398.774075 L170.721936,406.470095 L168.537948,414.62085 L237.763618,482.494403 L213.151111,428.426903 L231.536178,413 L252.468029,458.982025 L260.538241,430.837851 L322.05899,448.478642 L330.328111,419.640791 L355.092217,426.741784 L349,407.991869 L453.616217,374 L487.444155,478.111689 L515,423 L532.065067,457.130134 L540.56003,435 L590.212608,471.773321 L601.803753,449.024418 L628.533949,462.644133 L657.589341,405.619715 L684,419.076618 L684,403 L794,403 L794,509.92954 L852.891464,433 L867.968723,463.912961 L859,441.714593 L942.446547,408 L952.186318,432.10678 L924.370803,443.344978 L946.109522,497.150197 L961.309041,389 L1060.00913,402.871392 L1063.96624,377.887142 L1152.85819,391.966244 L1149.55802,412.802727 L1242.40449,412.031542 L1248.58034,433.569312 L1263.47009,378 L1341,398.774075 Z M1149.35899,414.059324 L1148.7909,417.646141 L1126.01513,414.038813 L1155.33578,434.902844 L1149.35899,414.059324 Z M180.245494,450.525791 L175.535378,485.991476 L205.791972,475.573295 L180.245494,450.525791 Z M515,462 L499,494 L531,494 L515,462 Z M826.779669,495.802661 L862.555017,496.155489 L848.527141,467.394079 L826.779669,495.802661 Z M1143.04203,447.561176 L1143.93796,483.327044 L1172.19228,468.303954 L1143.04203,447.561176 Z" id="Combined-Shape"></path>
        </g>
    </g>
</svg>