<?xml version="1.0" encoding="UTF-8"?>
<svg width="219px" height="185px" viewBox="0 0 219 185" version="1.1" xmlns="http://www.w3.org/2000/svg" xmlns:xlink="http://www.w3.org/1999/xlink">
    <!-- Generator: Sketch 52.2 (67145) - http://www.bohemiancoding.com/sketch -->
    <title>Group 3</title>
    <desc>Created with Sketch.</desc>
    <g id="Page-1" stroke="none" stroke-width="1" fill="none" fill-rule="evenodd">
        <g id="Artboard-2-Copy-47" transform="translate(-449.000000, -867.000000)">
            <g id="Group-3" transform="translate(449.000000, 867.000000)">
                <g id="Group-4" transform="translate(129.000000, 92.500000) scale(-1, 1) translate(-129.000000, -92.500000) translate(39.000000, 0.000000)" fill="#920213">
                    <path d="M124.784009,37.6580496 L27.5875176,134.854541 L18.9549479,125.080885 C-6.31831597,96.4669019 -6.31831597,50.0744697 18.9549479,21.460487 C44.2282118,-7.15349567 85.2042687,-7.15349567 110.477533,21.460487 L124.784009,37.6580496 Z" id="Combined-Shape"></path>
                    <path d="M89.5292575,25.1810841 L176.248584,121.492653 C181.311428,127.115511 180.857447,135.777983 175.234589,140.840827 C169.611732,145.903671 160.94926,145.44969 155.886416,139.826832 L69.1670893,43.5152627 C64.1042457,37.8924052 64.5582266,29.2299329 70.1810841,24.1670893 C75.8039416,19.1042457 84.4664139,19.5582266 89.5292575,25.1810841 Z" id="Combined-Shape"></path>
                    <path d="M18.2467561,124.266736 C7.92668479,112.219709 1.98426304,97.1513035 0.419490858,81.6247841 C6.0132103,77.6452524 13.8250759,78.4073055 18.5292575,83.6318285 L88.520319,161.364777 C93.5831626,166.987635 93.1291816,175.650107 87.5063241,180.712951 C81.8834667,185.775794 73.2209944,185.321813 68.1581507,179.698956 L18.2467561,124.266736 Z" id="Combined-Shape"></path>
                    <path d="M164.035458,165.203715 C162.710603,167.094214 161.291477,168.927793 159.778083,170.696354 C154.161366,175.023803 146.070407,174.358525 141.246853,169.001425 L47.1670893,64.5152627 C42.1042457,58.8924052 42.5582266,50.2299329 48.1810841,45.1670893 C53.8039416,40.1042457 62.4664139,40.5582266 67.5292575,46.1810841 L161.609021,150.667247 C165.290874,154.756359 166.055078,160.453014 164.035455,165.203719 Z" id="Combined-Shape"></path>
                    <path d="M45.5292575,67.6318285 L130.241192,161.713963 C135.304036,167.336821 134.850055,175.999293 129.227197,181.062137 C123.60434,186.12498 114.941868,185.671 109.879024,180.048142 L25.1670893,85.9660071 C20.1042457,80.3431496 20.5582266,71.6806773 26.1810841,66.6178337 C31.8039416,61.5549901 40.4664139,62.008971 45.5292575,67.6318285 Z" id="Combined-Shape"></path>
                </g>
                <g id="Group-4" fill="#D0021B">
                    <path d="M124.784009,37.6580496 L27.5875176,134.854541 L18.9549479,125.080885 C-6.31831597,96.4669019 -6.31831597,50.0744697 18.9549479,21.460487 C44.2282118,-7.15349567 85.2042687,-7.15349567 110.477533,21.460487 L124.784009,37.6580496 Z" id="Combined-Shape"></path>
                    <path d="M89.5292575,25.1810841 L176.248584,121.492653 C181.311428,127.115511 180.857447,135.777983 175.234589,140.840827 C169.611732,145.903671 160.94926,145.44969 155.886416,139.826832 L69.1670893,43.5152627 C64.1042457,37.8924052 64.5582266,29.2299329 70.1810841,24.1670893 C75.8039416,19.1042457 84.4664139,19.5582266 89.5292575,25.1810841 Z" id="Combined-Shape"></path>
                    <path d="M18.2467561,124.266736 C7.92668479,112.219709 1.98426304,97.1513035 0.419490858,81.6247841 C6.0132103,77.6452524 13.8250759,78.4073055 18.5292575,83.6318285 L88.520319,161.364777 C93.5831626,166.987635 93.1291816,175.650107 87.5063241,180.712951 C81.8834667,185.775794 73.2209944,185.321813 68.1581507,179.698956 L18.2467561,124.266736 Z" id="Combined-Shape"></path>
                    <path d="M164.035458,165.203715 C162.710603,167.094214 161.291477,168.927793 159.778083,170.696354 C154.161366,175.023803 146.070407,174.358525 141.246853,169.001425 L47.1670893,64.5152627 C42.1042457,58.8924052 42.5582266,50.2299329 48.1810841,45.1670893 C53.8039416,40.1042457 62.4664139,40.5582266 67.5292575,46.1810841 L161.609021,150.667247 C165.290874,154.756359 166.055078,160.453014 164.035455,165.203719 Z" id="Combined-Shape"></path>
                    <path d="M45.5292575,67.6318285 L130.241192,161.713963 C135.304036,167.336821 134.850055,175.999293 129.227197,181.062137 C123.60434,186.12498 114.941868,185.671 109.879024,180.048142 L25.1670893,85.9660071 C20.1042457,80.3431496 20.5582266,71.6806773 26.1810841,66.6178337 C31.8039416,61.5549901 40.4664139,62.008971 45.5292575,67.6318285 Z" id="Combined-Shape"></path>
                </g>
                <path d="M87.7370792,5.73980368 C91.9770292,8.34666054 96.0396224,11.4042506 99.8635276,14.9125739 L117.700972,33.5805822 L142.908666,60.4373774 C146.686932,66.5157546 145.829583,74.6108435 140.449725,79.7513441 C140.229884,79.9614044 140.003889,80.1649286 139.772036,80.3616507 L139.648401,80.4665523 C132.723643,86.3420523 122.40368,85.7373138 116.212556,79.0932373 L76.476204,36.4497156 C71.8916081,31.5297039 70.6382557,24.3695473 73.2790097,18.1847714 L75.6953765,12.5255213 C77.7579455,7.69488318 82.7733877,5.03079359 87.7370792,5.73980368 Z" id="Combined-Shape" fill="#920213" transform="translate(108.569553, 45.065299) rotate(90.000000) translate(-108.569553, -45.065299) "></path>
            </g>
        </g>
    </g>
</svg>