<?xml version="1.0" encoding="UTF-8"?>
<svg width="300px" height="304px" viewBox="0 0 300 304" version="1.1" xmlns="http://www.w3.org/2000/svg" xmlns:xlink="http://www.w3.org/1999/xlink">
    <!-- Generator: Sketch 52.2 (67145) - http://www.bohemiancoding.com/sketch -->
    <title>Group 3</title>
    <desc>Created with Sketch.</desc>
    <g id="Page-1" stroke="none" stroke-width="1" fill="none" fill-rule="evenodd">
        <g id="Error404-2-Copy-11" transform="translate(-745.000000, -26.000000)">
            <g id="Group-3" transform="translate(745.000000, 26.000000)">
                <path d="M0,1.20601635 L29.7644834,1.20601635 C50.8938898,1.20601635 63.2917379,13.2179392 63.2917379,35.5051212 C63.2917379,57.7923033 50.8456492,70.8172799 29.7644834,70.8172799 L0,70.8172799 L0,1.20601635 Z M20.4540372,17.4631167 L20.4540372,54.5601795 L26.8700442,54.5601795 C37.0970628,54.5601795 42.4517754,48.3371352 42.4517754,35.5051212 C42.4517754,23.7826423 36.6628969,17.4631167 26.8700442,17.4631167 L20.4540372,17.4631167 Z M102.251231,-4.05009359e-13 C123.766562,-4.05009359e-13 137.322186,13.796827 137.322186,36.0357684 C137.322186,58.2747099 123.766562,72.0232962 102.251231,72.0232962 C80.6876582,72.0232962 67.1802752,58.2747099 67.1802752,36.0357684 C67.1802752,13.796827 80.7358989,-4.05009359e-13 102.251231,-4.05009359e-13 Z M102.251231,16.305341 C93.7126348,16.305341 88.0202376,23.975605 88.0202376,36.0357684 C88.0202376,48.0476912 93.6643941,55.7179552 102.251231,55.7179552 C110.838067,55.7179552 116.482223,48.0476912 116.482223,36.0357684 C116.482223,23.975605 110.789826,16.305341 102.251231,16.305341 Z M185.206199,30.9704998 L174.834459,70.8172799 L155.538197,70.8172799 L137.592674,1.20601635 L158.722081,1.20601635 L166.730029,45.2014927 L167.115954,45.2014927 L177.487695,1.20601635 L193.310629,1.20601635 L203.68237,45.2014927 L204.068295,45.2014927 L212.076244,1.20601635 L233.20565,1.20601635 L215.260127,70.8172799 L195.963865,70.8172799 L185.592125,30.9704998 L185.206199,30.9704998 Z M256.872855,70.8172799 L237.576594,70.8172799 L237.576594,1.20601635 L253.447769,1.20601635 L280.317813,37.2900254 L280.703738,37.2900254 L280.703738,1.20601635 L300,1.20601635 L300,70.8172799 L284.321787,70.8172799 L257.258781,34.1543829 L256.872855,34.1543829 L256.872855,70.8172799 Z" id="DOWN-FOR-MAINTENANCE" fill="#33CCFF"></path>
                <path d="M11.9158879,219 L0,219 L0,94 L75,94 L75,104.741511 L11.9158879,104.741511 L11.9158879,151.692308 L69.9182243,151.692308 L69.9182243,162.260568 L11.9158879,162.260568 L11.9158879,219 Z M139.956522,92 C174.913043,92 197,116.950974 197,156.543318 C197,196.135662 175,221 139.956522,221 C105,221 83,196.135662 83,156.543318 C83,116.950974 105,92 139.956522,92 Z M139.956353,103 C112.371484,103 95,123.706883 95,156.54332 C95,189.293117 112.371484,210 139.956353,210 C167.541222,210 185,189.293117 185,156.54332 C185,123.706883 167.541222,103 139.956353,103 Z M223,105 L223,158 L254.818444,158 C273.276657,158 284,148.252874 284,131.456486 C284,114.834154 272.837176,105 254.378963,105 L223,105 Z M223.826087,167.804574 L223.826087,219 L212,219 L212,94 L256.26087,94 C280.782609,94 296.434783,108.293139 296.434783,130.555787 C296.434783,148.227304 286.347826,161.567568 269.565217,165.898822 L300,219 L286.086957,219 L257.217391,167.804574 L223.826087,167.804574 Z" id="DOWN-FOR-MAINTENANCE" fill="#220064"></path>
                <path d="M33.3333333,270.208333 L25.7807716,270.208333 L25.7807716,253.310666 L25.617473,253.310666 L18.983466,270.208333 L14.3498673,270.208333 L7.71586038,253.310666 L7.55256175,253.310666 L7.55256175,270.208333 L0,270.208333 L0,241.041667 L10.0020412,241.041667 L16.5952235,258.404222 L16.7585221,258.404222 L23.3312921,241.041667 L33.3333333,241.041667 L33.3333333,270.208333 Z M56.3616576,270.208333 L54.8245986,264.40734 L45.8071857,264.40734 L44.2701266,270.208333 L35.4166667,270.208333 L45.0693973,241.041667 L55.9722693,241.041667 L65.625,270.208333 L56.3616576,270.208333 Z M49.9125874,247.291667 L46.875,257.708333 L53.125,257.708333 L50.0874126,247.291667 L49.9125874,247.291667 Z M76.0416667,270.208333 L67.7083333,270.208333 L67.7083333,241.041667 L76.0416667,241.041667 L76.0416667,270.208333 Z M87.5386399,270.208333 L79.1666667,270.208333 L79.1666667,241.041667 L86.0526146,241.041667 L97.7105873,256.160632 L97.8780268,256.160632 L97.8780268,241.041667 L106.25,241.041667 L106.25,270.208333 L99.4477718,270.208333 L87.7060793,254.846818 L87.5386399,254.846818 L87.5386399,270.208333 Z M124.602337,270.208333 L116.022663,270.208333 L116.022663,247.853286 L108.333333,247.853286 L108.333333,241.041667 L132.291667,241.041667 L132.291667,247.853286 L124.602337,247.853286 L124.602337,270.208333 Z M155.208333,263.396714 L155.208333,270.208333 L134.375,270.208333 L134.375,241.041667 L155.208333,241.041667 L155.208333,247.853286 L143.052145,247.853286 L143.052145,252.562803 L154.45113,252.562803 L154.45113,258.707409 L143.052145,258.707409 L143.052145,263.396714 L155.208333,263.396714 Z M166.705307,270.208333 L158.333333,270.208333 L158.333333,241.041667 L165.219281,241.041667 L176.877254,256.160632 L177.044693,256.160632 L177.044693,241.041667 L185.416667,241.041667 L185.416667,270.208333 L178.614438,270.208333 L166.872746,254.846818 L166.705307,254.846818 L166.705307,270.208333 Z M207.403324,270.208333 L205.866265,264.40734 L196.848852,264.40734 L195.311793,270.208333 L186.458333,270.208333 L196.111064,241.041667 L207.013936,241.041667 L216.666667,270.208333 L207.403324,270.208333 Z M200.954254,247.291667 L197.916667,257.708333 L204.166667,257.708333 L201.129079,247.291667 L200.954254,247.291667 Z M227.121973,270.208333 L218.75,270.208333 L218.75,241.041667 L225.635948,241.041667 L237.293921,256.160632 L237.46136,256.160632 L237.46136,241.041667 L245.833333,241.041667 L245.833333,270.208333 L239.031105,270.208333 L227.289413,254.846818 L227.121973,254.846818 L227.121973,270.208333 Z M262.424952,270.208333 C253.46872,270.208333 247.916667,264.725106 247.916667,255.09405 C247.916667,245.462994 253.488983,240 262.424952,240 C270.145143,240 275.980878,245.017861 276.001141,252.261386 L267.774376,252.261386 C267.571746,248.943123 265.403608,246.737693 262.424952,246.737693 C258.899195,246.737693 256.670269,249.853622 256.670269,255.073817 C256.670269,260.354711 258.878933,263.470641 262.445215,263.470641 C265.403608,263.470641 267.551483,261.305676 267.814902,257.926714 L276.041667,257.926714 C276.001141,265.210706 270.307247,270.208333 262.424952,270.208333 Z M300,263.396714 L300,270.208333 L279.166667,270.208333 L279.166667,241.041667 L300,241.041667 L300,247.853286 L287.843811,247.853286 L287.843811,252.562803 L299.242796,252.562803 L299.242796,258.707409 L287.843811,258.707409 L287.843811,263.396714 L300,263.396714 Z" id="DOWN-FOR-MAINTENANCE" fill="#FF6699"></path>
                <path d="M6.34535418,303.30807 C2.44924997,303.30807 0,300.631862 0,296.253473 C0,291.903454 2.4681631,289.208333 6.34535418,289.208333 C9.51330299,289.208333 11.9247267,291.184755 12.2273367,294.11629 L9.82536959,294.11629 C9.50384643,292.404652 8.11373158,291.279321 6.34535418,291.279321 C4.00012641,291.279321 2.49653279,293.20846 2.49653279,296.253473 C2.49653279,299.3174 3.99066984,301.237082 6.35481074,301.237082 C8.16101439,301.237082 9.45656361,300.263056 9.83482615,298.617614 L12.2273367,298.617614 C11.8017914,301.539692 9.57004237,303.30807 6.34535418,303.30807 Z M25.112917,303.081112 L22.6825802,303.081112 L22.6825802,297.161303 L16.0440725,297.161303 L16.0440725,303.081112 L13.6042791,303.081112 L13.6042791,289.435291 L16.0440725,289.435291 L16.0440725,295.109229 L22.6825802,295.109229 L22.6825802,289.435291 L25.112917,289.435291 L25.112917,303.081112 Z M35.880227,301.019581 L35.880227,303.081112 L27.0477966,303.081112 L27.0477966,289.435291 L35.880227,289.435291 L35.880227,291.496822 L29.48759,291.496822 L29.48759,295.184882 L35.5303342,295.184882 L35.5303342,297.123477 L29.48759,297.123477 L29.48759,301.019581 L35.880227,301.019581 Z M43.4133923,303.30807 C39.5172881,303.30807 37.0680381,300.631862 37.0680381,296.253473 C37.0680381,291.903454 39.5362012,289.208333 43.4133923,289.208333 C46.5813411,289.208333 48.9927648,291.184755 49.2953749,294.11629 L46.8934077,294.11629 C46.5718845,292.404652 45.1817697,291.279321 43.4133923,291.279321 C41.0681645,291.279321 39.5645709,293.20846 39.5645709,296.253473 C39.5645709,299.3174 41.058708,301.237082 43.4228489,301.237082 C45.2290525,301.237082 46.5246017,300.263056 46.9028643,298.617614 L49.2953749,298.617614 C48.8698295,301.539692 46.6380805,303.30807 43.4133923,303.30807 Z M53.1121106,303.081112 L50.6723172,303.081112 L50.6723172,289.435291 L53.1121106,289.435291 L53.1121106,295.818471 L53.1972197,295.818471 L58.6442003,289.435291 L61.4527997,289.435291 L56.1949504,295.487492 L61.859432,303.081112 L58.890071,303.081112 L54.4549427,297.123477 L53.1121106,298.693267 L53.1121106,303.081112 Z M71.8097616,303.081112 L66.0885406,303.081112 L66.0885406,289.435291 L71.7530222,289.435291 C74.2306419,289.435291 75.8288011,290.768666 75.8288011,292.839654 C75.8288011,294.305421 74.7412963,295.582057 73.3417249,295.809015 L73.3417249,295.884667 C75.1952113,296.064342 76.4907606,297.397717 76.4907606,299.203921 C76.4907606,301.605888 74.7223832,303.081112 71.8097616,303.081112 Z M68.528334,291.33606 L68.528334,295.184882 L70.760083,295.184882 C72.4622645,295.184882 73.4173774,294.466183 73.4173774,293.199003 C73.4173774,292.007476 72.5946564,291.33606 71.1383456,291.33606 L68.528334,291.33606 Z M68.528334,301.180343 L71.2518243,301.180343 C73.0485714,301.180343 74.0036843,300.433274 74.0036843,299.033703 C74.0036843,297.643588 73.0202017,296.915433 71.1478021,296.915433 L68.528334,296.915433 L68.528334,301.180343 Z M86.6812202,303.081112 L85.5180629,299.553814 L80.4966276,299.553814 L79.3334703,303.081112 L76.8180244,303.081112 L81.6597849,289.435291 L84.4116449,289.435291 L89.2534055,303.081112 L86.6812202,303.081112 Z M82.9742473,291.846715 L81.0640214,297.671958 L84.9412125,297.671958 L83.0404432,291.846715 L82.9742473,291.846715 Z M95.5666741,303.30807 C91.6705698,303.30807 89.2213199,300.631862 89.2213199,296.253473 C89.2213199,291.903454 91.689483,289.208333 95.5666741,289.208333 C98.7346229,289.208333 101.146047,291.184755 101.448657,294.11629 L99.0466895,294.11629 C98.7251663,292.404652 97.3350515,291.279321 95.5666741,291.279321 C93.2214463,291.279321 91.7178527,293.20846 91.7178527,296.253473 C91.7178527,299.3174 93.2119897,301.237082 95.5761306,301.237082 C97.3823343,301.237082 98.6778835,300.263056 99.056146,298.617614 L101.448657,298.617614 C101.023111,301.539692 98.7913622,303.30807 95.5666741,303.30807 Z M105.265392,303.081112 L102.825599,303.081112 L102.825599,289.435291 L105.265392,289.435291 L105.265392,295.818471 L105.350501,295.818471 L110.797482,289.435291 L113.606081,289.435291 L108.348232,295.487492 L114.012714,303.081112 L111.043353,303.081112 L106.608224,297.123477 L105.265392,298.693267 L105.265392,303.081112 Z M120.681616,303.081112 L118.241822,303.081112 L118.241822,289.435291 L120.681616,289.435291 L120.681616,303.081112 Z M124.97118,303.081112 L122.616495,303.081112 L122.616495,289.435291 L124.734766,289.435291 L131.505665,298.995877 L131.590774,298.995877 L131.590774,289.435291 L133.936002,289.435291 L133.936002,303.081112 L131.836645,303.081112 L125.056289,293.51107 L124.97118,293.51107 L124.97118,303.081112 Z M138.723048,299.270117 L141.058819,299.270117 C141.238494,300.52784 142.467847,301.284365 144.170029,301.284365 C145.815471,301.284365 146.959715,300.471101 146.959715,299.336313 C146.959715,298.35283 146.278842,297.74761 144.501008,297.378804 L143.035241,297.076194 C140.302294,296.518257 139.025658,295.232164 139.025658,293.236829 C139.025658,290.834862 141.134472,289.208333 144.094376,289.208333 C147.11102,289.208333 149.106355,290.853775 149.163094,293.293569 L146.827323,293.293569 C146.713844,292.007476 145.635796,291.232038 144.075463,291.232038 C142.562413,291.232038 141.484364,291.950737 141.484364,293.094981 C141.484364,294.021724 142.165237,294.617488 143.867419,294.976837 L145.342642,295.279447 C148.217438,295.875211 149.418421,297.028911 149.418421,299.052616 C149.418421,301.662628 147.366347,303.30807 144.084919,303.30807 C140.926427,303.30807 138.836527,301.76665 138.723048,299.270117 Z M159.608881,301.019581 L159.608881,303.081112 L150.776451,303.081112 L150.776451,289.435291 L159.608881,289.435291 L159.608881,291.496822 L153.216244,291.496822 L153.216244,295.184882 L159.258988,295.184882 L159.258988,297.123477 L153.216244,297.123477 L153.216244,301.019581 L159.608881,301.019581 Z M167.860745,303.081112 L165.061602,303.081112 L160.314407,289.435291 L163.000071,289.435291 L166.461174,300.461644 L166.517913,300.461644 L169.979015,289.435291 L172.60794,289.435291 L167.860745,303.081112 Z M182.429594,301.019581 L182.429594,303.081112 L173.597163,303.081112 L173.597163,289.435291 L182.429594,289.435291 L182.429594,291.496822 L176.036957,291.496822 L176.036957,295.184882 L182.079701,295.184882 L182.079701,297.123477 L176.036957,297.123477 L176.036957,301.019581 L182.429594,301.019581 Z M186.52057,291.411713 L186.52057,296.073799 L189.27243,296.073799 C190.823306,296.073799 191.72168,295.213251 191.72168,293.738027 C191.72168,292.30063 190.766567,291.411713 189.225147,291.411713 L186.52057,291.411713 Z M186.52057,297.946198 L186.52057,303.081112 L184.080776,303.081112 L184.080776,289.435291 L189.499387,289.435291 C192.449835,289.435291 194.218213,291.071276 194.218213,293.681288 C194.218213,295.487492 193.272556,296.991085 191.646027,297.577392 L194.624845,303.081112 L191.844615,303.081112 L189.158951,297.946198 L186.52057,297.946198 Z M204.63563,303.081112 L203.472472,299.553814 L198.451037,299.553814 L197.28788,303.081112 L194.772434,303.081112 L199.614194,289.435291 L202.366054,289.435291 L207.207815,303.081112 L204.63563,303.081112 Z M200.928657,291.846715 L199.018431,297.671958 L202.895622,297.671958 L200.994853,291.846715 L200.928657,291.846715 Z M216.830881,301.019581 L216.830881,303.081112 L208.197038,303.081112 L208.197038,289.435291 L210.636832,289.435291 L210.636832,301.019581 L216.830881,301.019581 Z M235.604184,303.081112 L233.410262,303.081112 L233.410262,293.397591 L233.344066,293.397591 L229.400679,303.081112 L227.736323,303.081112 L223.792936,293.397591 L223.72674,293.397591 L223.72674,303.081112 L221.523361,303.081112 L221.523361,289.435291 L224.350874,289.435291 L228.530675,299.846967 L228.606327,299.846967 L232.786128,289.435291 L235.604184,289.435291 L235.604184,303.081112 Z M239.988314,303.081112 L237.54852,303.081112 L237.54852,289.435291 L239.988314,289.435291 L239.988314,303.081112 Z M244.277878,303.081112 L241.923193,303.081112 L241.923193,289.435291 L244.041464,289.435291 L250.812363,298.995877 L250.897472,298.995877 L250.897472,289.435291 L253.2427,289.435291 L253.2427,303.081112 L251.143343,303.081112 L244.362987,293.51107 L244.277878,293.51107 L244.277878,303.081112 Z M257.62683,289.435291 L257.62683,298.05022 C257.62683,299.913163 258.771074,301.180343 260.794779,301.180343 C262.818483,301.180343 263.972184,299.913163 263.972184,298.05022 L263.972184,289.435291 L266.402521,289.435291 L266.402521,298.267721 C266.402521,301.246539 264.255881,303.30807 260.794779,303.30807 C257.343133,303.30807 255.187036,301.246539 255.187036,298.267721 L255.187036,289.435291 L257.62683,289.435291 Z M274.115361,303.081112 L271.685024,303.081112 L271.685024,291.496822 L267.599788,291.496822 L267.599788,289.435291 L278.19114,289.435291 L278.19114,291.496822 L274.115361,291.496822 L274.115361,303.081112 Z M288.220838,301.019581 L288.220838,303.081112 L279.388407,303.081112 L279.388407,289.435291 L288.220838,289.435291 L288.220838,291.496822 L281.828201,291.496822 L281.828201,295.184882 L287.870945,295.184882 L287.870945,297.123477 L281.828201,297.123477 L281.828201,301.019581 L288.220838,301.019581 Z M289.304627,299.270117 L291.640398,299.270117 C291.820072,300.52784 293.049426,301.284365 294.751607,301.284365 C296.397049,301.284365 297.541293,300.471101 297.541293,299.336313 C297.541293,298.35283 296.860421,297.74761 295.082587,297.378804 L293.61682,297.076194 C290.883873,296.518257 289.607237,295.232164 289.607237,293.236829 C289.607237,290.834862 291.71605,289.208333 294.675955,289.208333 C297.692598,289.208333 299.687933,290.853775 299.744673,293.293569 L297.408902,293.293569 C297.295423,292.007476 296.217375,291.232038 294.657042,291.232038 C293.143991,291.232038 292.065943,291.950737 292.065943,293.094981 C292.065943,294.021724 292.746816,294.617488 294.448997,294.976837 L295.924221,295.279447 C298.799016,295.875211 300,297.028911 300,299.052616 C300,301.662628 297.947926,303.30807 294.666498,303.30807 C291.508006,303.30807 289.418105,301.76665 289.304627,299.270117 Z" id="CHECK-BACK-IN-SEVERA" fill="#220064"></path>
            </g>
        </g>
    </g>
</svg>