<?xml version="1.0" encoding="UTF-8"?>
<svg width="335px" height="306px" viewBox="0 0 335 306" version="1.1" xmlns="http://www.w3.org/2000/svg" xmlns:xlink="http://www.w3.org/1999/xlink">
    <!-- Generator: Sketch 52.2 (67145) - http://www.bohemiancoding.com/sketch -->
    <title>Group 2</title>
    <desc>Created with Sketch.</desc>
    <g id="Page-1" stroke="none" stroke-width="1" fill="none" fill-rule="evenodd">
        <g id="Error404-2-Copy-11" transform="translate(-243.000000, -43.000000)">
            <g id="Group-2" transform="translate(235.000000, 43.000000)">
                <g id="Group" transform="translate(13.000000, 0.000000)">
                    <path d="M50.7,57.6 L50.7,72 L0.8,72 L0.8,1 L49.8,1 L49.8,15.4 L17.2,15.4 L17.2,29.2 L45.2,29.2 L45.2,42.5 L17.2,42.5 L17.2,57.6 L50.7,57.6 Z M60.8674837,72 L60.8674837,1 L92.8674837,1 C96.2008337,1 99.2841362,1.699993 102.117484,3.1 C104.950831,4.500007 107.400807,6.333322 109.467484,8.6 C111.534161,10.866678 113.150811,13.433319 114.317484,16.3 C115.484156,19.166681 116.067484,22.066652 116.067484,25 C116.067484,27.200011 115.80082,29.3166565 115.267484,31.35 C114.734148,33.3833435 113.967489,35.299991 112.967484,37.1 C111.967479,38.900009 110.750824,40.5166595 109.317484,41.95 C107.884143,43.3833405 106.267493,44.599995 104.467484,45.6 L120.067484,72 L101.567484,72 L87.9674837,49.1 L77.2674837,49.1 L77.2674837,72 L60.8674837,72 Z M77.2674837,34.8 L92.2674837,34.8 C94.2008267,34.8 95.8674767,33.8833425 97.2674837,32.05 C98.6674907,30.2166575 99.3674837,27.866681 99.3674837,25 C99.3674837,22.066652 98.5674917,19.733342 96.9674837,18 C95.3674757,16.266658 93.6341597,15.4 91.7674837,15.4 L77.2674837,15.4 L77.2674837,34.8 Z M128.034967,72 L128.034967,1 L160.034967,1 C163.368317,1 166.45162,1.699993 169.284967,3.1 C172.118315,4.500007 174.56829,6.333322 176.634967,8.6 C178.701644,10.866678 180.318295,13.433319 181.484967,16.3 C182.65164,19.166681 183.234967,22.066652 183.234967,25 C183.234967,27.200011 182.968303,29.3166565 182.434967,31.35 C181.901631,33.3833435 181.134972,35.299991 180.134967,37.1 C179.134962,38.900009 177.918308,40.5166595 176.484967,41.95 C175.051627,43.3833405 173.434976,44.599995 171.634967,45.6 L187.234967,72 L168.734967,72 L155.134967,49.1 L144.434967,49.1 L144.434967,72 L128.034967,72 Z M144.434967,34.8 L159.434967,34.8 C161.36831,34.8 163.03496,33.8833425 164.434967,32.05 C165.834974,30.2166575 166.534967,27.866681 166.534967,25 C166.534967,22.066652 165.734975,19.733342 164.134967,18 C162.534959,16.266658 160.801643,15.4 158.934967,15.4 L144.434967,15.4 L144.434967,34.8 Z" id="ERR" fill="#33CCFF"></path>
                    <path d="M226.6,72.5 C221.666642,72.5 217.166687,71.466677 213.1,69.4 C209.033313,67.333323 205.533348,64.63335 202.6,61.3 C199.666652,57.96665 197.400008,54.133355 195.8,49.8 C194.199992,45.466645 193.4,41.033356 193.4,36.5 C193.4,31.766643 194.249991,27.233355 195.95,22.9 C197.650008,18.566645 199.983318,14.73335 202.95,11.4 C205.916681,8.06665 209.433313,5.4166765 213.5,3.45 C217.566687,1.4833235 221.966643,0.5 226.7,0.5 C231.633358,0.5 236.149979,1.5499895 240.25,3.65 C244.35002,5.7500105 247.849985,8.499983 250.75,11.9 C253.650014,15.300017 255.899992,19.1499785 257.5,23.45 C259.100008,27.7500215 259.9,32.099978 259.9,36.5 C259.9,41.300024 259.050008,45.866645 257.35,50.2 C255.649991,54.533355 253.316681,58.3499835 250.35,61.65 C247.383318,64.9500165 243.866687,67.5833235 239.8,69.55 C235.733313,71.5166765 231.333357,72.5 226.6,72.5 Z M198.5,36.5 C198.5,40.566687 199.183326,44.4833145 200.55,48.25 C201.916673,52.0166855 203.849987,55.3499855 206.35,58.25 C208.850012,61.1500145 211.833316,63.466658 215.3,65.2 C218.766684,66.933342 222.566646,67.8 226.7,67.8 C230.966688,67.8 234.816649,66.900009 238.25,65.1 C241.68335,63.299991 244.616654,60.9166815 247.05,57.95 C249.483345,54.9833185 251.36666,51.633352 252.7,47.9 C254.03334,44.166648 254.7,40.366686 254.7,36.5 C254.7,32.433313 254.000007,28.5166855 252.6,24.75 C251.199993,20.9833145 249.250012,17.6500145 246.75,14.75 C244.249987,11.8499855 241.300017,9.533342 237.9,7.8 C234.499983,6.066658 230.766687,5.2 226.7,5.2 C222.433312,5.2 218.566684,6.099991 215.1,7.9 C211.633316,9.700009 208.666679,12.0833185 206.2,15.05 C203.733321,18.0166815 201.83334,21.366648 200.5,25.1 C199.16666,28.833352 198.5,32.633314 198.5,36.5 Z M273.767484,72 L273.767484,1 L303.267484,1 C306.267499,1 309.034138,1.633327 311.567484,2.9 C314.10083,4.166673 316.284141,5.8499895 318.117484,7.95 C319.950826,10.0500105 321.384145,12.4166535 322.417484,15.05 C323.450822,17.6833465 323.967484,20.33332 323.967484,23 C323.967484,25.600013 323.567488,28.1166545 322.767484,30.55 C321.96748,32.9833455 320.834158,35.166657 319.367484,37.1 C317.90081,39.033343 316.134161,40.633327 314.067484,41.9 C312.000807,43.166673 309.734163,43.999998 307.267484,44.4 L324.967484,72 L319.067484,72 L301.867484,45.2 L278.867484,45.2 L278.867484,72 L273.767484,72 Z M278.867484,40.5 L303.767484,40.5 C306.034162,40.5 308.100808,40.000005 309.967484,39 C311.83416,37.999995 313.434144,36.6833415 314.767484,35.05 C316.100824,33.4166585 317.11748,31.5500105 317.817484,29.45 C318.517487,27.3499895 318.867484,25.200011 318.867484,23 C318.867484,20.733322 318.450821,18.5500105 317.617484,16.45 C316.784146,14.3499895 315.650824,12.500008 314.217484,10.9 C312.784143,9.299992 311.117493,8.0166715 309.217484,7.05 C307.317474,6.0833285 305.267495,5.6 303.067484,5.6 L278.867484,5.6 L278.867484,40.5 Z" id="OR" fill="#FFFFFF"></path>
                </g>
                <path d="M65.8317757,232 L65.8317757,212.458453 L25,212.458453 L25,185.667622 L75.364486,122 L96.0186916,122 L96.0186916,185.667622 L110,185.667622 L110,212.458453 L96.0186916,212.458453 L96.0186916,232 L65.8317757,232 Z M54,186 L69,186 L69,167 L54,186 Z" id="4" fill="#FF6699"></path>
                <path d="M281.831776,232 L281.831776,212.458453 L241,212.458453 L241,185.667622 L291.364486,122 L312.018692,122 L312.018692,185.667622 L326,185.667622 L326,212.458453 L312.018692,212.458453 L312.018692,232 L281.831776,232 Z M270,186 L285,186 L285,167 L270,186 Z" id="4-copy" fill="#FF6699"></path>
                <path d="M176,232 C145.624339,232 121,207.375661 121,177 C121,146.624339 145.624339,122 176,122 C206.375661,122 231,146.624339 231,177 C231,207.375661 206.375661,232 176,232 Z M176,202 C189.807119,202 201,190.807119 201,177 C201,163.192881 189.807119,152 176,152 C162.192881,152 151,163.192881 151,177 C151,190.807119 162.192881,202 176,202 Z" id="Combined-Shape" fill="#FF6699"></path>
                <path d="M8.75376952,305 L8.75376952,277.31 L20.4927695,277.31 C21.7667759,277.31 22.9432641,277.576497 24.0222695,278.1095 C25.1012749,278.642503 26.0307656,279.344496 26.8107695,280.2155 C27.5907734,281.086504 28.2017673,282.074494 28.6437695,283.1795 C29.0857717,284.284506 29.3067695,285.395994 29.3067695,286.514 C29.3067695,287.684006 29.0987716,288.821494 28.6827695,289.9265 C28.2667674,291.031506 27.6817733,292.012996 26.9277695,292.871 C26.1737658,293.729004 25.2637749,294.417997 24.1977695,294.938 C23.1317642,295.458003 21.9617759,295.718 20.6877695,295.718 L14.1357695,295.718 L14.1357695,305 L8.75376952,305 Z M14.1357695,290.999 L20.3757695,290.999 C21.3637745,290.999 22.1892662,290.596004 22.8522695,289.79 C23.5152728,288.983996 23.8467695,287.892007 23.8467695,286.514 C23.8467695,285.811996 23.7427706,285.181503 23.5347695,284.6225 C23.3267685,284.063497 23.0537712,283.589002 22.7157695,283.199 C22.3777678,282.808998 21.9812718,282.516501 21.5262695,282.3215 C21.0712672,282.126499 20.6097719,282.029 20.1417695,282.029 L14.1357695,282.029 L14.1357695,290.999 Z M39.2390882,277.31 L43.9970882,277.31 L54.5270882,305 L48.9890882,305 L46.4150882,298.097 L36.7430882,298.097 L34.2080882,305 L28.6700882,305 L39.2390882,277.31 Z M45.4400882,294.314 L41.6180882,283.433 L37.6400882,294.314 L45.4400882,294.314 Z M75.8474068,301.88 C73.6373958,304.090011 71.0634215,305.195 68.1254068,305.195 C66.3053977,305.195 64.5959148,304.831004 62.9969068,304.103 C61.3978988,303.374996 60.0069127,302.374006 58.8239068,301.1 C57.6409009,299.825994 56.7049102,298.324509 56.0159068,296.5955 C55.3269034,294.866491 54.9824068,293.00101 54.9824068,290.999 C54.9824068,289.100991 55.3269034,287.313508 56.0159068,285.6365 C56.7049102,283.959492 57.6539008,282.490506 58.8629068,281.2295 C60.0719128,279.968494 61.4953986,278.967504 63.1334068,278.2265 C64.771415,277.485496 66.5523972,277.115 68.4764068,277.115 C71.0764198,277.115 73.3058975,277.660995 75.1649068,278.753 C77.0239161,279.845005 78.4214021,281.313991 79.3574068,283.16 L75.3404068,286.124 C74.6384033,284.745993 73.6569131,283.693004 72.3959068,282.965 C71.1349005,282.236996 69.7634142,281.873 68.2814068,281.873 C67.111401,281.873 66.0389117,282.119998 65.0639068,282.614 C64.0889019,283.108002 63.2569102,283.783996 62.5679068,284.642 C61.8789034,285.500004 61.3459087,286.487994 60.9689068,287.606 C60.5919049,288.724006 60.4034068,289.906994 60.4034068,291.155 C60.4034068,292.455007 60.6114047,293.670494 61.0274068,294.8015 C61.4434089,295.932506 62.0154032,296.913996 62.7434068,297.746 C63.4714104,298.578004 64.3359018,299.234498 65.3369068,299.7155 C66.3379118,300.196502 67.423401,300.437 68.5934068,300.437 C71.2714202,300.437 73.689396,299.176013 75.8474068,296.654 L75.8474068,294.704 L70.2704068,294.704 L70.2704068,290.765 L80.2934068,290.765 L80.2934068,305 L75.8474068,305 L75.8474068,301.88 Z M104.187725,300.281 L104.187725,305 L84.9607254,305 L84.9607254,277.31 L103.836725,277.31 L103.836725,282.029 L90.3427254,282.029 L90.3427254,288.698 L102.003725,288.698 L102.003725,293.066 L90.3427254,293.066 L90.3427254,300.281 L104.187725,300.281 Z M123.272363,287.255 L123.272363,305 L117.890363,305 L117.890363,277.31 L122.063363,277.31 L136.493363,295.484 L136.493363,277.349 L141.875363,277.349 L141.875363,305 L137.507363,305 L123.272363,287.255 Z M159.529681,305.195 C157.501671,305.195 155.66219,304.798504 154.011181,304.0055 C152.360173,303.212496 150.943187,302.159507 149.760181,300.8465 C148.577175,299.533493 147.660685,298.032008 147.010681,296.342 C146.360678,294.651992 146.035681,292.923009 146.035681,291.155 C146.035681,289.308991 146.380178,287.541008 147.069181,285.851 C147.758185,284.160992 148.707175,282.666006 149.916181,281.366 C151.125187,280.065993 152.561673,279.032504 154.225681,278.2655 C155.88969,277.498496 157.696672,277.115 159.646681,277.115 C161.648691,277.115 163.475173,277.524496 165.126181,278.3435 C166.77719,279.162504 168.187676,280.234993 169.357681,281.561 C170.527687,282.887007 171.437678,284.394992 172.087681,286.085 C172.737685,287.775008 173.062681,289.490991 173.062681,291.233 C173.062681,293.079009 172.724685,294.840492 172.048681,296.5175 C171.372678,298.194508 170.436687,299.676494 169.240681,300.9635 C168.044675,302.250506 166.61469,303.277496 164.950681,304.0445 C163.286673,304.811504 161.479691,305.195 159.529681,305.195 Z M151.495681,291.155 C151.495681,292.351006 151.67768,293.507994 152.041681,294.626 C152.405683,295.744006 152.932178,296.731996 153.621181,297.59 C154.310185,298.448004 155.155176,299.136997 156.156181,299.657 C157.157186,300.177003 158.294675,300.437 159.568681,300.437 C160.868688,300.437 162.019176,300.170503 163.020181,299.6375 C164.021186,299.104497 164.866178,298.396004 165.555181,297.512 C166.244185,296.627996 166.76418,295.633506 167.115181,294.5285 C167.466183,293.423494 167.641681,292.299006 167.641681,291.155 C167.641681,289.958994 167.453183,288.802006 167.076181,287.684 C166.699179,286.565994 166.166185,285.578004 165.477181,284.72 C164.788178,283.861996 163.943186,283.179503 162.942181,282.6725 C161.941176,282.165497 160.816688,281.912 159.568681,281.912 C158.268675,281.912 157.111686,282.178497 156.097681,282.7115 C155.083676,283.244503 154.238685,283.946496 153.562681,284.8175 C152.886678,285.688504 152.373183,286.676494 152.022181,287.7815 C151.67118,288.886506 151.495681,290.010994 151.495681,291.155 Z M196.684,282.029 L187.831,282.029 L187.831,305 L182.488,305 L182.488,282.029 L173.635,282.029 L173.635,277.31 L196.684,277.31 L196.684,282.029 Z M208.514637,305 L208.514637,277.31 L227.117637,277.31 L227.117637,282.029 L213.896637,282.029 L213.896637,289.166 L224.894637,289.166 L224.894637,293.534 L213.896637,293.534 L213.896637,305 L208.514637,305 Z M242.158956,305.195 C240.130946,305.195 238.291464,304.798504 236.640456,304.0055 C234.989448,303.212496 233.572462,302.159507 232.389456,300.8465 C231.20645,299.533493 230.289959,298.032008 229.639956,296.342 C228.989953,294.651992 228.664956,292.923009 228.664956,291.155 C228.664956,289.308991 229.009452,287.541008 229.698456,285.851 C230.387459,284.160992 231.33645,282.666006 232.545456,281.366 C233.754462,280.065993 235.190948,279.032504 236.854956,278.2655 C238.518964,277.498496 240.325946,277.115 242.275956,277.115 C244.277966,277.115 246.104448,277.524496 247.755456,278.3435 C249.406464,279.162504 250.81695,280.234993 251.986956,281.561 C253.156962,282.887007 254.066953,284.394992 254.716956,286.085 C255.366959,287.775008 255.691956,289.490991 255.691956,291.233 C255.691956,293.079009 255.353959,294.840492 254.677956,296.5175 C254.001953,298.194508 253.065962,299.676494 251.869956,300.9635 C250.67395,302.250506 249.243964,303.277496 247.579956,304.0445 C245.915948,304.811504 244.108966,305.195 242.158956,305.195 Z M234.124956,291.155 C234.124956,292.351006 234.306954,293.507994 234.670956,294.626 C235.034958,295.744006 235.561452,296.731996 236.250456,297.59 C236.939459,298.448004 237.784451,299.136997 238.785456,299.657 C239.786461,300.177003 240.92395,300.437 242.197956,300.437 C243.497962,300.437 244.648451,300.170503 245.649456,299.6375 C246.650461,299.104497 247.495452,298.396004 248.184456,297.512 C248.873459,296.627996 249.393454,295.633506 249.744456,294.5285 C250.095458,293.423494 250.270956,292.299006 250.270956,291.155 C250.270956,289.958994 250.082458,288.802006 249.705456,287.684 C249.328454,286.565994 248.795459,285.578004 248.106456,284.72 C247.417452,283.861996 246.572461,283.179503 245.571456,282.6725 C244.570451,282.165497 243.445962,281.912 242.197956,281.912 C240.897949,281.912 239.740961,282.178497 238.726956,282.7115 C237.712951,283.244503 236.867959,283.946496 236.191956,284.8175 C235.515953,285.688504 235.002458,286.676494 234.651456,287.7815 C234.300454,288.886506 234.124956,290.010994 234.124956,291.155 Z M271.591275,300.437 C272.865281,300.437 273.93777,300.177003 274.808775,299.657 C275.679779,299.136997 276.381772,298.461004 276.914775,297.629 C277.447777,296.796996 277.824773,295.841505 278.045775,294.7625 C278.266776,293.683495 278.377275,292.572006 278.377275,291.428 L278.377275,277.31 L283.720275,277.31 L283.720275,291.428 C283.720275,293.326009 283.492777,295.106992 283.037775,296.771 C282.582772,298.435008 281.867779,299.890994 280.892775,301.139 C279.91777,302.387006 278.663282,303.374996 277.129275,304.103 C275.595267,304.831004 273.762285,305.195 271.630275,305.195 C269.420264,305.195 267.541782,304.811504 265.994775,304.0445 C264.447767,303.277496 263.193279,302.263506 262.231275,301.0025 C261.26927,299.741494 260.573777,298.279008 260.144775,296.615 C259.715772,294.950992 259.501275,293.222009 259.501275,291.428 L259.501275,277.31 L264.883275,277.31 L264.883275,291.428 C264.883275,292.598006 264.993773,293.722495 265.214775,294.8015 C265.435776,295.880505 265.812772,296.835996 266.345775,297.668 C266.878777,298.500004 267.57427,299.169497 268.432275,299.6765 C269.290279,300.183503 270.343268,300.437 271.591275,300.437 Z M294.588593,287.255 L294.588593,305 L289.206593,305 L289.206593,277.31 L293.379593,277.31 L307.809593,295.484 L307.809593,277.349 L313.191593,277.349 L313.191593,305 L308.823593,305 L294.588593,287.255 Z M319.028912,305 L319.028912,277.31 L329.090912,277.31 C331.352923,277.31 333.335403,277.673996 335.038412,278.402 C336.74142,279.130004 338.164906,280.117994 339.308912,281.366 C340.452918,282.614006 341.310909,284.076492 341.882912,285.7535 C342.454915,287.430508 342.740912,289.217991 342.740912,291.116 C342.740912,293.222011 342.422415,295.126491 341.785412,296.8295 C341.148409,298.532509 340.231918,299.988494 339.035912,301.1975 C337.839906,302.406506 336.40342,303.342497 334.726412,304.0055 C333.049403,304.668503 331.170922,305 329.090912,305 L319.028912,305 Z M337.319912,291.116 C337.319912,289.789993 337.137914,288.568006 336.773912,287.45 C336.40991,286.331994 335.876915,285.370004 335.174912,284.564 C334.472908,283.757996 333.608417,283.134002 332.581412,282.692 C331.554407,282.249998 330.390918,282.029 329.090912,282.029 L324.410912,282.029 L324.410912,300.281 L329.090912,300.281 C330.416918,300.281 331.593407,300.047002 332.620412,299.579 C333.647417,299.110998 334.505408,298.467504 335.194412,297.6485 C335.883415,296.829496 336.40991,295.861006 336.773912,294.743 C337.137914,293.624994 337.319912,292.416006 337.319912,291.116 Z" id="PAGE-NOT-FOUND" fill="#220064"></path>
            </g>
        </g>
    </g>
</svg>