<?xml version="1.0" encoding="UTF-8"?>
<svg width="335px" height="304px" viewBox="0 0 335 304" version="1.1" xmlns="http://www.w3.org/2000/svg" xmlns:xlink="http://www.w3.org/1999/xlink">
    <!-- Generator: Sketch 52.2 (67145) - http://www.bohemiancoding.com/sketch -->
    <title>Group 2 Copy</title>
    <desc>Created with Sketch.</desc>
    <g id="Page-1" stroke="none" stroke-width="1" fill="none" fill-rule="evenodd">
        <g id="Error404-2-Copy-11" transform="translate(-429.000000, -43.000000)">
            <g id="Group-2-Copy" transform="translate(429.000000, 43.000000)">
                <g id="Group" transform="translate(5.000000, 0.000000)">
                    <path d="M50.7,57.6 L50.7,72 L0.8,72 L0.8,1 L49.8,1 L49.8,15.4 L17.2,15.4 L17.2,29.2 L45.2,29.2 L45.2,42.5 L17.2,42.5 L17.2,57.6 L50.7,57.6 Z M60.8674837,72 L60.8674837,1 L92.8674837,1 C96.2008337,1 99.2841362,1.699993 102.117484,3.1 C104.950831,4.500007 107.400807,6.333322 109.467484,8.6 C111.534161,10.866678 113.150811,13.433319 114.317484,16.3 C115.484156,19.166681 116.067484,22.066652 116.067484,25 C116.067484,27.200011 115.80082,29.3166565 115.267484,31.35 C114.734148,33.3833435 113.967489,35.299991 112.967484,37.1 C111.967479,38.900009 110.750824,40.5166595 109.317484,41.95 C107.884143,43.3833405 106.267493,44.599995 104.467484,45.6 L120.067484,72 L101.567484,72 L87.9674837,49.1 L77.2674837,49.1 L77.2674837,72 L60.8674837,72 Z M77.2674837,34.8 L92.2674837,34.8 C94.2008267,34.8 95.8674767,33.8833425 97.2674837,32.05 C98.6674907,30.2166575 99.3674837,27.866681 99.3674837,25 C99.3674837,22.066652 98.5674917,19.733342 96.9674837,18 C95.3674757,16.266658 93.6341597,15.4 91.7674837,15.4 L77.2674837,15.4 L77.2674837,34.8 Z M128.034967,72 L128.034967,1 L160.034967,1 C163.368317,1 166.45162,1.699993 169.284967,3.1 C172.118315,4.500007 174.56829,6.333322 176.634967,8.6 C178.701644,10.866678 180.318295,13.433319 181.484967,16.3 C182.65164,19.166681 183.234967,22.066652 183.234967,25 C183.234967,27.200011 182.968303,29.3166565 182.434967,31.35 C181.901631,33.3833435 181.134972,35.299991 180.134967,37.1 C179.134962,38.900009 177.918308,40.5166595 176.484967,41.95 C175.051627,43.3833405 173.434976,44.599995 171.634967,45.6 L187.234967,72 L168.734967,72 L155.134967,49.1 L144.434967,49.1 L144.434967,72 L128.034967,72 Z M144.434967,34.8 L159.434967,34.8 C161.36831,34.8 163.03496,33.8833425 164.434967,32.05 C165.834974,30.2166575 166.534967,27.866681 166.534967,25 C166.534967,22.066652 165.734975,19.733342 164.134967,18 C162.534959,16.266658 160.801643,15.4 158.934967,15.4 L144.434967,15.4 L144.434967,34.8 Z" id="ERR" fill="#33CCFF"></path>
                    <path d="M226.6,72.5 C221.666642,72.5 217.166687,71.466677 213.1,69.4 C209.033313,67.333323 205.533348,64.63335 202.6,61.3 C199.666652,57.96665 197.400008,54.133355 195.8,49.8 C194.199992,45.466645 193.4,41.033356 193.4,36.5 C193.4,31.766643 194.249991,27.233355 195.95,22.9 C197.650008,18.566645 199.983318,14.73335 202.95,11.4 C205.916681,8.06665 209.433313,5.4166765 213.5,3.45 C217.566687,1.4833235 221.966643,0.5 226.7,0.5 C231.633358,0.5 236.149979,1.5499895 240.25,3.65 C244.35002,5.7500105 247.849985,8.499983 250.75,11.9 C253.650014,15.300017 255.899992,19.1499785 257.5,23.45 C259.100008,27.7500215 259.9,32.099978 259.9,36.5 C259.9,41.300024 259.050008,45.866645 257.35,50.2 C255.649991,54.533355 253.316681,58.3499835 250.35,61.65 C247.383318,64.9500165 243.866687,67.5833235 239.8,69.55 C235.733313,71.5166765 231.333357,72.5 226.6,72.5 Z M198.5,36.5 C198.5,40.566687 199.183326,44.4833145 200.55,48.25 C201.916673,52.0166855 203.849987,55.3499855 206.35,58.25 C208.850012,61.1500145 211.833316,63.466658 215.3,65.2 C218.766684,66.933342 222.566646,67.8 226.7,67.8 C230.966688,67.8 234.816649,66.900009 238.25,65.1 C241.68335,63.299991 244.616654,60.9166815 247.05,57.95 C249.483345,54.9833185 251.36666,51.633352 252.7,47.9 C254.03334,44.166648 254.7,40.366686 254.7,36.5 C254.7,32.433313 254.000007,28.5166855 252.6,24.75 C251.199993,20.9833145 249.250012,17.6500145 246.75,14.75 C244.249987,11.8499855 241.300017,9.533342 237.9,7.8 C234.499983,6.066658 230.766687,5.2 226.7,5.2 C222.433312,5.2 218.566684,6.099991 215.1,7.9 C211.633316,9.700009 208.666679,12.0833185 206.2,15.05 C203.733321,18.0166815 201.83334,21.366648 200.5,25.1 C199.16666,28.833352 198.5,32.633314 198.5,36.5 Z M273.767484,72 L273.767484,1 L303.267484,1 C306.267499,1 309.034138,1.633327 311.567484,2.9 C314.10083,4.166673 316.284141,5.8499895 318.117484,7.95 C319.950826,10.0500105 321.384145,12.4166535 322.417484,15.05 C323.450822,17.6833465 323.967484,20.33332 323.967484,23 C323.967484,25.600013 323.567488,28.1166545 322.767484,30.55 C321.96748,32.9833455 320.834158,35.166657 319.367484,37.1 C317.90081,39.033343 316.134161,40.633327 314.067484,41.9 C312.000807,43.166673 309.734163,43.999998 307.267484,44.4 L324.967484,72 L319.067484,72 L301.867484,45.2 L278.867484,45.2 L278.867484,72 L273.767484,72 Z M278.867484,40.5 L303.767484,40.5 C306.034162,40.5 308.100808,40.000005 309.967484,39 C311.83416,37.999995 313.434144,36.6833415 314.767484,35.05 C316.100824,33.4166585 317.11748,31.5500105 317.817484,29.45 C318.517487,27.3499895 318.867484,25.200011 318.867484,23 C318.867484,20.733322 318.450821,18.5500105 317.617484,16.45 C316.784146,14.3499895 315.650824,12.500008 314.217484,10.9 C312.784143,9.299992 311.117493,8.0166715 309.217484,7.05 C307.317474,6.0833285 305.267495,5.6 303.067484,5.6 L278.867484,5.6 L278.867484,40.5 Z" id="OR" fill="#FFFFFF"></path>
                </g>
                <path d="M65.8317757,232 L65.8317757,212.458453 L25,212.458453 L25,185.667622 L75.364486,122 L96.0186916,122 L96.0186916,185.667622 L110,185.667622 L110,212.458453 L96.0186916,212.458453 L96.0186916,232 L65.8317757,232 Z M54,186 L69,186 L69,167 L54,186 Z" id="4" fill="#FF6699"></path>
                <path d="M176,232 C145.624339,232 121,207.375661 121,177 C121,146.624339 145.624339,122 176,122 C206.375661,122 231,146.624339 231,177 C231,207.375661 206.375661,232 176,232 Z M176,202 C189.807119,202 201,190.807119 201,177 C201,163.192881 189.807119,152 176,152 C162.192881,152 151,163.192881 151,177 C151,190.807119 162.192881,202 176,202 Z" id="Combined-Shape" fill="#FF6699"></path>
                <polygon id="1" fill="#FF6699" points="272.326977 232.44 272.326977 151.325876 251.636744 167.236723 238 148.674068 274.521395 122 298.66 122 298.66 232.44"></polygon>
                <path d="M26,291.804677 C26,293.624035 25.6930289,295.27991 25.0790774,296.772352 C24.465126,298.264794 23.5870458,299.544011 22.4448105,300.610041 C21.3025753,301.676071 19.9247747,302.507562 18.3113674,303.104539 C16.6979601,303.701516 14.9061054,304 12.9357496,304 C10.9368379,304 9.13784435,303.701516 7.53871499,303.104539 C5.93958563,302.507562 4.58320161,301.676071 3.46952224,300.610041 C2.35584287,299.544011 1.49917928,298.264794 0.899505766,296.772352 C0.299832257,295.27991 0,293.624035 0,291.804677 L0,273 L7.28171334,273 L7.28171334,291.207703 C7.28171334,292.032099 7.38879629,292.813843 7.6029654,293.552957 C7.81713451,294.292072 8.14552222,294.953 8.58813839,295.535763 C9.03075455,296.118527 9.61614133,296.580466 10.3443163,296.921596 C11.0724913,297.262725 11.9505715,297.433287 12.9785832,297.433287 C14.0065949,297.433287 14.8846751,297.262725 15.6128501,296.921596 C16.3410251,296.580466 16.9335507,296.118527 17.3904448,295.535763 C17.8473389,294.953 18.1757266,294.292072 18.3756178,293.552957 C18.575509,292.813843 18.675453,292.032099 18.675453,291.207703 L18.675453,273 L26,273 L26,291.804677 Z M49.8664596,303 L37.9177019,283.381356 L37.7919255,283.381356 L37.9596273,303 L31,303 L31,273 L39.1754658,273 L51.0822981,292.576271 L51.2080745,292.576271 L51.0403727,273 L58,273 L58,303 L49.8664596,303 Z M83.9682959,303 L81.6433289,297.110169 L70.0607662,297.110169 L67.8626156,303 L60,303 L72.5548217,273 L79.5719947,273 L92,303 L83.9682959,303 Z M76.0449438,281 L72,291 L80,291 L76.0449438,281 Z M119,291.804677 C119,293.624035 118.693029,295.27991 118.079077,296.772352 C117.465126,298.264794 116.587046,299.544011 115.444811,300.610041 C114.302575,301.676071 112.924775,302.507562 111.311367,303.104539 C109.69796,303.701516 107.906105,304 105.93575,304 C103.936838,304 102.137844,303.701516 100.538715,303.104539 C98.9395856,302.507562 97.5832016,301.676071 96.4695222,300.610041 C95.3558429,299.544011 94.4991793,298.264794 93.8995058,296.772352 C93.2998323,295.27991 93,293.624035 93,291.804677 L93,273 L100.281713,273 L100.281713,291.207703 C100.281713,292.032099 100.388796,292.813843 100.602965,293.552957 C100.817135,294.292072 101.145522,294.953 101.588138,295.535763 C102.030755,296.118527 102.616141,296.580466 103.344316,296.921596 C104.072491,297.262725 104.950571,297.433287 105.978583,297.433287 C107.006595,297.433287 107.884675,297.262725 108.61285,296.921596 C109.341025,296.580466 109.933551,296.118527 110.390445,295.535763 C110.847339,294.953 111.175727,294.292072 111.375618,293.552957 C111.575509,292.813843 111.675453,292.032099 111.675453,291.207703 L111.675453,273 L119,273 L119,291.804677 Z M136.593695,279.186441 L136.593695,303 L129.406305,303 L129.406305,279.186441 L121,279.186441 L121,273 L145,273 L145,279.186441 L136.593695,279.186441 Z M166.805825,303 L166.805825,290.457627 L155.194175,290.457627 L155.194175,303 L148,303 L148,273 L155.194175,273 L155.194175,284.355932 L166.805825,284.355932 L166.805825,273 L174,273 L174,303 L166.805825,303 Z M211,287.375335 C211,289.702425 210.586256,291.828632 209.758755,293.754021 C208.931254,295.679411 207.782757,297.327741 206.31323,298.699062 C204.843702,300.070382 203.095989,301.130023 201.070039,301.878016 C199.044088,302.626009 196.846964,303 194.478599,303 C192.110235,303 189.920244,302.626009 187.90856,301.878016 C185.896877,301.130023 184.156298,300.070382 182.68677,298.699062 C181.217243,297.327741 180.068746,295.679411 179.241245,293.754021 C178.413744,291.828632 178,289.702425 178,287.375335 C178,285.020542 178.413744,282.894335 179.241245,280.996649 C180.068746,279.098963 181.217243,277.485261 182.68677,276.155496 C184.156298,274.825731 185.896877,273.800719 187.90856,273.080429 C189.920244,272.360139 192.110235,272 194.478599,272 C196.846964,272 199.044088,272.360139 201.070039,273.080429 C203.095989,273.800719 204.843702,274.825731 206.31323,276.155496 C207.782757,277.485261 208.931254,279.098963 209.758755,280.996649 C210.586256,282.894335 211,285.020542 211,287.375335 Z M203,287.917431 C203,286.65137 202.790126,285.467895 202.37037,284.366972 C201.950615,283.26605 201.369963,282.323398 200.628395,281.538991 C199.886828,280.754583 198.991363,280.135323 197.941975,279.681193 C196.892587,279.227062 195.738278,279 194.479012,279 C193.219747,279 192.072433,279.227062 191.037037,279.681193 C190.001641,280.135323 189.106177,280.754583 188.350617,281.538991 C187.595058,282.323398 187.014405,283.26605 186.608642,284.366972 C186.202879,285.467895 186,286.65137 186,287.917431 C186,289.238539 186.209874,290.456416 186.62963,291.571101 C187.049385,292.685785 187.630037,293.642198 188.371605,294.440367 C189.113172,295.238536 190.001641,295.864677 191.037037,296.318807 C192.072433,296.772938 193.219747,297 194.479012,297 C195.738278,297 196.885592,296.772938 197.920988,296.318807 C198.956384,295.864677 199.851848,295.238536 200.607407,294.440367 C201.362967,293.642198 201.950615,292.685785 202.37037,291.571101 C202.790126,290.456416 203,289.238539 203,287.917431 Z M230.709845,303 L224.367876,291.09322 L221.963731,291.09322 L221.963731,303 L215,303 L215,273 L226.19171,273 C227.601043,273 228.975814,273.148304 230.316062,273.444915 C231.656311,273.741527 232.858371,274.242934 233.92228,274.949153 C234.986188,275.655371 235.835921,276.587565 236.471503,277.745763 C237.107084,278.903961 237.42487,280.344624 237.42487,282.067797 C237.42487,284.101705 236.886016,285.810728 235.80829,287.194915 C234.730565,288.579103 233.238352,289.567794 231.331606,290.161017 L239,303 L230.709845,303 Z M231,282.351515 C231,281.644441 230.846343,281.071719 230.539024,280.633333 C230.231706,280.194947 229.836588,279.855557 229.353659,279.615152 C228.870729,279.374746 228.329271,279.212122 227.729268,279.127273 C227.129265,279.042424 226.551222,279 225.995122,279 L222,279 L222,286 L225.556098,286 C226.170735,286 226.799997,285.950506 227.443902,285.851515 C228.087808,285.752525 228.673168,285.575759 229.2,285.321212 C229.726832,285.066665 230.158535,284.698992 230.495122,284.218182 C230.831709,283.737371 231,283.115155 231,282.351515 Z M242,303 L242,273 L249,273 L249,303 L242,303 Z M254,303 L254,296.728814 L268.494624,279.144068 L254.344086,279.144068 L254.344086,273 L277.698925,273 L277.698925,278.805085 L262.860215,296.728814 L278,296.728814 L278,303 L254,303 Z M281,303 L281,273 L301.234818,273 L301.234818,279.144068 L288.01417,279.144068 L288.01417,284.779661 L300.512146,284.779661 L300.512146,290.584746 L288.01417,290.584746 L288.01417,296.813559 L302,296.813559 L302,303 L281,303 Z M335,287.915254 C335,290.542386 334.512864,292.809313 333.538578,294.716102 C332.564292,296.622891 331.279383,298.190672 329.683812,299.419492 C328.088242,300.648311 326.287958,301.552257 324.282905,302.131356 C322.277852,302.710455 320.244589,303 318.183056,303 L307,303 L307,273 L317.844175,273 C319.962189,273 322.051931,273.247173 324.113464,273.741525 C326.174998,274.235878 328.010582,275.055079 329.620272,276.199153 C331.229963,277.343226 332.528992,278.875697 333.517398,280.79661 C334.505804,282.717524 335,285.090381 335,287.915254 Z M327,287.458937 C327,285.816417 326.732598,284.454514 326.197785,283.373188 C325.662972,282.291863 324.949899,281.429552 324.058544,280.786232 C323.16719,280.142911 322.152432,279.684381 321.014241,279.410628 C319.876049,279.136875 318.703593,279 317.496835,279 L314,279 L314,296 L317.332278,296 C318.593888,296 319.807484,295.856282 320.973101,295.568841 C322.138719,295.2814 323.16719,294.809182 324.058544,294.152174 C324.949899,293.495166 325.662972,292.619168 326.197785,291.524155 C326.732598,290.429141 327,289.074082 327,287.458937 Z" id="UNAUTHORIZED" fill="#220064"></path>
            </g>
        </g>
    </g>
</svg>