<?xml version="1.0" encoding="UTF-8"?>
<svg width="379px" height="294px" viewBox="0 0 379 294" version="1.1" xmlns="http://www.w3.org/2000/svg" xmlns:xlink="http://www.w3.org/1999/xlink">
    <!-- Generator: Sketch 52.2 (67145) - http://www.bohemiancoding.com/sketch -->
    <title>Group 3 Copy</title>
    <desc>Created with Sketch.</desc>
    <g id="Page-1" stroke="none" stroke-width="1" fill="none" fill-rule="evenodd">
        <g id="Error404-2-Copy-9" transform="translate(-70.000000, -56.000000)">
            <g id="Group-3-Copy" transform="translate(70.000000, 56.000000)">
                <g id="Group" transform="translate(42.000000, 0.000000)">
                    <polygon id="Rectangle" fill="#FF6699" transform="translate(147.000000, 147.000000) rotate(-315.000000) translate(-147.000000, -147.000000) " points="-13.0666667 99.4518519 307.066667 99.4518519 307.066667 194.548148 -13.0666667 194.548148"></polygon>
                    <polygon id="Rectangle" fill="#33CCFF" transform="translate(147.000000, 147.000000) rotate(-45.000000) translate(-147.000000, -147.000000) " points="-13.0666667 99.4518519 307.066667 99.4518519 307.066667 194.548148 -13.0666667 194.548148"></polygon>
                    <polygon id="Rectangle" fill="#7F2AFF" transform="translate(147.000000, 147.000000) rotate(-315.000000) translate(-147.000000, -147.000000) " points="99.4518519 99.4518519 194.548148 99.4518519 194.548148 194.548148 99.4518519 194.548148"></polygon>
                </g>
                <path d="M51.1475489,167 L51.1475489,184 L0.547548938,184 L0.547548938,113 L50.2475489,113 L50.2475489,130 L20.0475489,130 L20.0475489,140 L45.8475489,140 L45.8475489,155.8 L20.0475489,155.8 L20.0475489,167 L51.1475489,167 Z M74.1150326,113 L88.0150326,159.5 L101.715033,113 L122.215033,113 L96.1150326,184 L79.9150326,184 L53.5150326,113 L74.1150326,113 Z M318.517484,130 L298.117484,130 L298.117484,184 L278.617484,184 L278.617484,130 L258.117484,130 L258.117484,113 L318.517484,113 L318.517484,130 Z M368.784967,136.2 C366.784957,134.999994 364.718311,133.933338 362.584967,133 C360.784958,132.199996 358.768312,131.450003 356.534967,130.75 C354.301623,130.049996 352.118311,129.7 349.984967,129.7 C348.251625,129.7 346.868306,129.966664 345.834967,130.5 C344.801629,131.033336 344.284967,131.933327 344.284967,133.2 C344.284967,134.133338 344.584964,134.899997 345.184967,135.5 C345.78497,136.100003 346.651628,136.649997 347.784967,137.15 C348.918306,137.650002 350.301626,138.133331 351.934967,138.6 C353.568309,139.066669 355.41829,139.63333 357.484967,140.3 C360.75165,141.300005 363.701621,142.399994 366.334967,143.6 C368.968314,144.800006 371.218291,146.216658 373.084967,147.85 C374.951643,149.483341 376.384962,151.466655 377.384967,153.8 C378.384972,156.133345 378.884967,158.96665 378.884967,162.3 C378.884967,166.566688 378.101642,170.149985 376.534967,173.05 C374.968293,175.950014 372.901647,178.266658 370.334967,180 C367.768288,181.733342 364.868317,182.983329 361.634967,183.75 C358.401618,184.51667 355.15165,184.9 351.884967,184.9 C349.284954,184.9 346.618314,184.700002 343.884967,184.3 C341.15162,183.899998 338.434981,183.333337 335.734967,182.6 C333.034954,181.866663 330.43498,181.000005 327.934967,180 C325.434955,178.999995 323.118311,177.866673 320.984967,176.6 L329.384967,159.5 C331.718312,160.966674 334.151621,162.266661 336.684967,163.4 C338.818311,164.400005 341.234954,165.299996 343.934967,166.1 C346.634981,166.900004 349.384953,167.3 352.184967,167.3 C354.318311,167.3 355.80163,167.016669 356.634967,166.45 C357.468305,165.88333 357.884967,165.133338 357.884967,164.2 C357.884967,163.199995 357.468305,162.350003 356.634967,161.65 C355.80163,160.949996 354.651641,160.333336 353.184967,159.8 C351.718293,159.266664 350.034977,158.733336 348.134967,158.2 C346.234958,157.666664 344.218311,157.033337 342.084967,156.3 C338.951618,155.233328 336.251645,154.083339 333.984967,152.85 C331.718289,151.61666 329.851641,150.216674 328.384967,148.65 C326.918293,147.083325 325.834971,145.30001 325.134967,143.3 C324.434964,141.29999 324.084967,139.000013 324.084967,136.4 C324.084967,132.466647 324.801627,129.000015 326.234967,126 C327.668308,122.999985 329.618288,120.50001 332.084967,118.5 C334.551646,116.49999 337.368285,114.983338 340.534967,113.95 C343.70165,112.916661 347.051616,112.4 350.584967,112.4 C353.18498,112.4 355.718288,112.649997 358.184967,113.15 C360.651646,113.650002 363.034956,114.283329 365.334967,115.05 C367.634979,115.81667 369.784957,116.649995 371.784967,117.55 C373.784977,118.450004 375.584959,119.299996 377.184967,120.1 L368.784967,136.2 Z" id="EVENTS" fill="#220064"></path>
                <path d="M178.382516,167 L178.382516,184 L127.782516,184 L127.782516,113 L177.482516,113 L177.482516,130 L147.282516,130 L147.282516,140 L173.082516,140 L173.082516,155.8 L147.282516,155.8 L147.282516,167 L178.382516,167 Z M207.15,149.1 L207.15,184 L187.65,184 L187.65,113 L202.85,113 L231.35,149.1 L231.35,113 L250.85,113 L250.85,184 L235.35,184 L207.15,149.1 Z" id="Combined-Shape" fill="#FFFFFF"></path>
            </g>
        </g>
    </g>
</svg>