<?xml version="1.0" encoding="UTF-8"?>
<svg width="440px" height="189px" viewBox="0 0 440 189" version="1.1" xmlns="http://www.w3.org/2000/svg" xmlns:xlink="http://www.w3.org/1999/xlink">
    <!-- Generator: Sketch 52.2 (67145) - http://www.bohemiancoding.com/sketch -->
    <title>Group 3</title>
    <desc>Created with Sketch.</desc>
    <g id="Page-1" stroke="none" stroke-width="1" fill="none" fill-rule="evenodd">
        <g id="Error404-2-Copy-7" transform="translate(-202.000000, -189.000000)">
            <g id="Group-3" transform="translate(202.000000, 189.000000)">
                <path d="M401.249905,187.7 C393.195227,187.7 385.315768,186.383743 377.611293,183.751188 C369.906818,181.118634 363.369786,177.286862 358,172.255759 L369.381554,152.248446 C375.101543,156.109526 380.617164,159.093042 385.928582,161.199086 C391.240001,163.305129 396.113592,164.358135 400.549502,164.358135 C405.218881,164.358135 407.553535,162.895627 407.553535,159.970567 C407.553535,158.332533 406.648856,156.928525 404.839472,155.758501 C403.030088,154.588477 399.498923,153.242969 394.245872,151.721938 C387.708741,149.849899 382.251487,148.007139 377.873944,146.193601 C373.496402,144.380064 369.936054,142.420303 367.192794,140.31426 C364.449534,138.208216 362.49426,135.868203 361.326916,133.29415 C360.159571,130.720097 359.575907,127.67808 359.575907,124.168007 C359.575907,119.487911 360.509769,115.158886 362.377521,111.180804 C364.245272,107.202722 366.842575,103.751203 370.169508,100.826143 C373.49644,97.9010823 377.465353,95.6488196 382.076364,94.069287 C386.687376,92.4897544 391.736066,91.7 397.222586,91.7 C403.993185,91.7 410.442668,92.5775049 416.571228,94.3325411 C422.699787,96.0875773 428.857438,99.6560974 435.044365,105.038208 L422.437105,125.045521 C416.717116,121.301444 411.931075,118.639679 408.078837,117.060146 C404.2266,115.480614 400.607886,114.690859 397.222586,114.690859 C395.2381,114.690859 393.603842,115.071111 392.319763,115.831627 C391.035684,116.592143 390.393654,117.791399 390.393654,119.429433 C390.393654,121.184469 391.327515,122.617728 393.195267,123.72925 C395.063018,124.840773 398.740099,126.09853 404.226619,127.502559 C410.880484,129.257596 416.483654,131.100356 421.036299,133.030896 C425.588943,134.961436 429.236841,137.067447 431.980101,139.348995 C434.723361,141.630542 436.678634,144.204556 437.845979,147.071115 C439.013323,149.937674 439.596987,153.242943 439.596987,156.98702 C439.596987,161.784119 438.721491,166.054643 436.970474,169.79872 C435.219457,173.542798 432.680521,176.760316 429.353588,179.451371 C426.026656,182.142427 421.999377,184.189938 417.271631,185.593967 C412.543885,186.997996 407.203363,187.7 401.249905,187.7 Z" id="s" fill="#FF6699"></path>
                <path d="M344.110961,178.7625 C337.66889,182.087517 330.835174,184.624991 323.609608,186.375 C316.384041,188.125009 308.766842,189 300.757781,189 C286.654869,189 273.857974,186.331277 262.366712,180.99375 C250.87545,175.656223 241.038381,168.568794 232.85521,159.73125 C224.672038,150.893706 218.317118,140.787557 213.790257,129.4125 C209.263396,118.037443 207,106.31256 207,94.2375 C207,81.9874388 209.35045,70.1750569 214.051421,58.8 C218.752392,47.4249431 225.324947,37.3625438 233.769283,28.6125 C242.213619,19.8624562 252.224796,12.9062758 263.803112,7.74375 C275.381429,2.58122419 288.047744,0 301.802436,0 C315.905348,0 328.702243,2.75622244 340.193505,8.26875 C351.684767,13.7812776 361.521835,20.9999554 369.705007,29.925 C377.888178,38.8500446 384.199572,48.9999431 388.639378,60.375 C393.079183,71.7500569 395.299053,83.3874405 395.299053,95.2875 C395.299053,106.837558 393.253291,117.906197 389.161705,128.49375 C385.070119,139.081303 379.281048,148.574958 371.794317,156.975 L400,187.6875 L352.4682,187.6875 L344.110961,178.7625 Z M301.630769,144 C305.466686,144 308.692295,143.650627 311.307692,142.951872 L280.707692,109.411765 L328.307692,109.411765 L338.507692,120.679144 C340.425651,116.661299 341.820508,112.468828 342.692308,108.101604 C343.564107,103.734381 344,99.2798801 344,94.7379679 C344,88.4491664 343.128214,82.3788171 341.384615,76.526738 C339.641017,70.6746588 336.982069,65.4777411 333.407692,60.9358289 C329.833315,56.3939167 325.387206,52.7691757 320.069231,50.0614973 C314.751255,47.3538189 308.517984,46 301.369231,46 C294.046117,46 287.725668,47.4411621 282.407692,50.3235294 C277.089717,53.2058968 272.687197,56.9616524 269.2,61.5909091 C265.712803,66.2201657 263.141034,71.4607551 261.484615,77.3128342 C259.828197,83.1649134 259,89.1479195 259,95.2620321 C259,101.550834 259.871786,107.621183 261.615385,113.473262 C263.358983,119.325341 265.974342,124.522259 269.461538,129.064171 C272.948735,133.606083 277.351255,137.230824 282.669231,139.938503 C287.987206,142.646181 294.307656,144 301.630769,144 Z" id="Combined-Shape" fill="#220064"></path>
                <polygon id="Path-9" fill="#220064" points="180.663034 -9.09494702e-13 302.587191 -9.09494702e-13 218.049878 84.5373139"></polygon>
                <polygon id="Path-9" fill="#220064" transform="translate(261.572872, 147.000000) scale(1, -1) translate(-261.572872, -147.000000) " points="229.846495 105 303.758901 105 219.386843 189"></polygon>
                <g id="Group-2" transform="translate(39.000000, 0.000000)">
                    <polygon id="Rectangle" fill="#33CCFF" points="91 114.394737 208 114.394737 208 152.194737 91 152.194737"></polygon>
                    <g id="Group">
                        <path d="M80.3361066,189 L0.243782353,189 L88.1949864,1.22213351e-12 L162.420414,1.1937118e-12 L167.239447,2.25177473 L80.3361066,189 Z" id="Combined-Shape" fill="#33CCFF"></path>
                        <path d="M170.044469,-5.89750471e-13 L257.995673,189 L177.903348,189 L89.9521442,-5.54223334e-13 L170.044469,-5.82645043e-13 Z" id="Combined-Shape" fill="#FF6699"></path>
                    </g>
                </g>
                <polygon id="FQ" fill="#220064" points="0 189 0 0 129 0 129 45.2535211 51.6529774 45.2535211 51.6529774 76.6647887 114.696099 76.6647887 114.696099 118.723944 51.6529774 118.723944 51.6529774 189"></polygon>
            </g>
        </g>
    </g>
</svg>